<svg width="4482" height="2048" viewBox="0 0 4482 2048" fill="none" xmlns="http://www.w3.org/2000/svg">
<rect width="2048" height="2048" rx="1024" fill="#0144B0"/>
<g filter="url(#filter0_d_1_18)">
<mask id="path-2-outside-1_1_18" maskUnits="userSpaceOnUse" x="528" y="519" width="519" height="702" fill="black">
<rect fill="white" x="528" y="519" width="519" height="702"/>
<path d="M863.862 885.289C863.862 866.408 859.975 848.637 852.2 831.977C844.425 815.317 833.319 801.711 818.88 791.16C804.441 780.609 786.948 775.333 766.401 775.333C739.745 775.333 717.809 781.719 700.594 794.492C683.934 807.265 670.606 823.925 660.61 844.472C651.169 864.464 644.505 886.122 640.618 909.446C637.286 932.77 635.62 954.983 635.62 976.086C635.62 994.967 637.286 1015.24 640.618 1036.89C643.95 1058.55 649.781 1078.82 658.111 1097.7C666.996 1116.59 679.214 1132.13 694.763 1144.35C710.312 1156.01 730.027 1161.84 753.906 1161.84C773.898 1161.84 792.224 1155.74 808.884 1143.52C825.544 1130.75 838.872 1114.92 848.868 1096.04C858.864 1077.16 863.862 1058.55 863.862 1040.23V885.289ZM1018.8 1157.68C1018.8 1160.46 1017.41 1163.23 1014.64 1166.01C1011.86 1168.79 1009.36 1171.01 1007.14 1172.67C999.919 1178.23 989.367 1182.95 975.484 1186.83C962.156 1190.72 950.772 1192.67 941.331 1192.67C926.892 1192.67 914.953 1188.5 905.512 1180.17C896.071 1171.84 888.297 1161.57 882.188 1149.35C876.635 1137.13 871.637 1125.19 867.194 1113.53C854.977 1132.97 838.317 1150.46 817.214 1166.01C796.111 1181 773.62 1188.5 749.741 1188.5C733.636 1188.5 716.976 1187.39 699.761 1185.17C683.101 1182.39 667.552 1176.56 653.113 1167.68C621.459 1147.68 597.302 1120.75 580.642 1086.88C564.537 1052.44 556.485 1017.18 556.485 981.084C556.485 937.768 564.26 898.895 579.809 864.464C595.358 829.478 618.405 801.989 648.948 781.997C680.047 761.45 718.365 751.176 763.902 751.176C773.898 751.176 785.005 753.12 797.222 757.007C809.439 760.894 821.379 765.892 833.041 772.001C845.258 777.554 854.977 783.385 862.196 789.494V627.892C862.196 610.121 857.476 600.125 848.035 597.904C839.15 595.127 827.21 593.739 812.216 593.739C807.218 593.739 802.22 594.017 797.222 594.572C792.224 594.572 787.226 594.572 782.228 594.572C780.007 594.572 777.785 593.739 775.564 592.073C773.898 590.407 773.065 588.463 773.065 586.242C773.065 582.355 774.453 579.856 777.23 578.745C778.341 577.634 779.451 577.079 780.562 577.079C782.228 577.079 783.894 576.801 785.56 576.246C797.222 574.025 808.884 572.359 820.546 571.248C832.763 569.582 844.981 567.638 857.198 565.417C869.415 563.196 881.355 560.974 893.017 558.753C904.679 555.976 916.341 552.922 928.003 549.59C928.558 549.59 929.391 549.312 930.502 548.757C932.168 548.202 933.279 547.924 933.834 547.924C936.611 547.924 938.277 549.035 938.832 551.256C939.387 553.477 939.665 555.699 939.665 557.92C939.665 626.781 939.387 695.365 938.832 763.671C938.277 831.977 937.999 900.561 937.999 969.422V1093.54C937.999 1102.98 939.11 1112.7 941.331 1122.69C943.552 1132.69 947.717 1141.02 953.826 1147.68C960.49 1154.35 969.653 1157.68 981.315 1157.68C986.868 1157.68 992.144 1156.57 997.142 1154.35C1002.14 1152.13 1007.42 1151.02 1012.97 1151.02C1016.86 1151.02 1018.8 1153.24 1018.8 1157.68Z"/>
</mask>
<path d="M863.862 885.289C863.862 866.408 859.975 848.637 852.2 831.977C844.425 815.317 833.319 801.711 818.88 791.16C804.441 780.609 786.948 775.333 766.401 775.333C739.745 775.333 717.809 781.719 700.594 794.492C683.934 807.265 670.606 823.925 660.61 844.472C651.169 864.464 644.505 886.122 640.618 909.446C637.286 932.77 635.62 954.983 635.62 976.086C635.62 994.967 637.286 1015.24 640.618 1036.89C643.95 1058.55 649.781 1078.82 658.111 1097.7C666.996 1116.59 679.214 1132.13 694.763 1144.35C710.312 1156.01 730.027 1161.84 753.906 1161.84C773.898 1161.84 792.224 1155.74 808.884 1143.52C825.544 1130.75 838.872 1114.92 848.868 1096.04C858.864 1077.16 863.862 1058.55 863.862 1040.23V885.289ZM1018.8 1157.68C1018.8 1160.46 1017.41 1163.23 1014.64 1166.01C1011.86 1168.79 1009.36 1171.01 1007.14 1172.67C999.919 1178.23 989.367 1182.95 975.484 1186.83C962.156 1190.72 950.772 1192.67 941.331 1192.67C926.892 1192.67 914.953 1188.5 905.512 1180.17C896.071 1171.84 888.297 1161.57 882.188 1149.35C876.635 1137.13 871.637 1125.19 867.194 1113.53C854.977 1132.97 838.317 1150.46 817.214 1166.01C796.111 1181 773.62 1188.5 749.741 1188.5C733.636 1188.5 716.976 1187.39 699.761 1185.17C683.101 1182.39 667.552 1176.56 653.113 1167.68C621.459 1147.68 597.302 1120.75 580.642 1086.88C564.537 1052.44 556.485 1017.18 556.485 981.084C556.485 937.768 564.26 898.895 579.809 864.464C595.358 829.478 618.405 801.989 648.948 781.997C680.047 761.45 718.365 751.176 763.902 751.176C773.898 751.176 785.005 753.12 797.222 757.007C809.439 760.894 821.379 765.892 833.041 772.001C845.258 777.554 854.977 783.385 862.196 789.494V627.892C862.196 610.121 857.476 600.125 848.035 597.904C839.15 595.127 827.21 593.739 812.216 593.739C807.218 593.739 802.22 594.017 797.222 594.572C792.224 594.572 787.226 594.572 782.228 594.572C780.007 594.572 777.785 593.739 775.564 592.073C773.898 590.407 773.065 588.463 773.065 586.242C773.065 582.355 774.453 579.856 777.23 578.745C778.341 577.634 779.451 577.079 780.562 577.079C782.228 577.079 783.894 576.801 785.56 576.246C797.222 574.025 808.884 572.359 820.546 571.248C832.763 569.582 844.981 567.638 857.198 565.417C869.415 563.196 881.355 560.974 893.017 558.753C904.679 555.976 916.341 552.922 928.003 549.59C928.558 549.59 929.391 549.312 930.502 548.757C932.168 548.202 933.279 547.924 933.834 547.924C936.611 547.924 938.277 549.035 938.832 551.256C939.387 553.477 939.665 555.699 939.665 557.92C939.665 626.781 939.387 695.365 938.832 763.671C938.277 831.977 937.999 900.561 937.999 969.422V1093.54C937.999 1102.98 939.11 1112.7 941.331 1122.69C943.552 1132.69 947.717 1141.02 953.826 1147.68C960.49 1154.35 969.653 1157.68 981.315 1157.68C986.868 1157.68 992.144 1156.57 997.142 1154.35C1002.14 1152.13 1007.42 1151.02 1012.97 1151.02C1016.86 1151.02 1018.8 1153.24 1018.8 1157.68Z" fill="white"/>
<path d="M852.2 831.977L826.827 843.818V843.818L852.2 831.977ZM700.594 794.492L683.91 772.005L683.733 772.137L683.558 772.271L700.594 794.492ZM660.61 844.472L635.431 832.223L635.36 832.369L635.291 832.516L660.61 844.472ZM640.618 909.446L612.999 904.843L612.945 905.164L612.899 905.486L640.618 909.446ZM640.618 1036.9L668.292 1032.64V1032.64L640.618 1036.9ZM658.111 1097.7L632.493 1109.01L632.631 1109.32L632.776 1109.63L658.111 1097.7ZM694.763 1144.35L677.464 1166.37L677.711 1166.56L677.963 1166.75L694.763 1144.35ZM808.884 1143.52L825.442 1166.1L825.683 1165.92L825.92 1165.74L808.884 1143.52ZM848.868 1096.04L824.122 1082.94H824.122L848.868 1096.04ZM1014.64 1166.01L994.836 1146.21V1146.21L1014.64 1166.01ZM1007.14 1172.67L990.338 1150.27L990.201 1150.38L990.066 1150.48L1007.14 1172.67ZM975.484 1186.84L967.934 1159.87L967.789 1159.91L967.644 1159.96L975.484 1186.84ZM905.512 1180.17L886.987 1201.17H886.987L905.512 1180.17ZM882.188 1149.35L856.698 1160.94L856.912 1161.41L857.144 1161.87L882.188 1149.35ZM867.194 1113.53L893.36 1103.56L873.37 1051.09L843.488 1098.63L867.194 1113.53ZM817.214 1166.01L833.432 1188.84L833.629 1188.7L833.824 1188.55L817.214 1166.01ZM699.761 1185.17L695.158 1212.79L695.666 1212.87L696.178 1212.94L699.761 1185.17ZM653.113 1167.68L638.161 1191.35L638.299 1191.44L638.438 1191.52L653.113 1167.68ZM580.642 1086.88L555.279 1098.74L555.395 1098.99L555.516 1099.23L580.642 1086.88ZM579.809 864.464L605.327 875.988L605.362 875.912L605.396 875.836L579.809 864.464ZM648.948 781.997L664.282 805.425L664.333 805.392L664.383 805.358L648.948 781.997ZM797.222 757.007L805.712 730.325L805.712 730.325L797.222 757.007ZM833.041 772.001L820.049 796.804L820.742 797.167L821.455 797.491L833.041 772.001ZM862.196 789.494L844.11 810.869L890.196 849.865V789.494H862.196ZM848.035 597.904L839.683 624.629L840.643 624.929L841.622 625.16L848.035 597.904ZM797.222 594.572V622.572H798.773L800.314 622.401L797.222 594.572ZM775.564 592.073L755.765 611.872L757.172 613.279L758.764 614.473L775.564 592.073ZM777.23 578.745L787.629 604.742L792.965 602.608L797.029 598.544L777.23 578.745ZM785.56 576.246L780.321 548.74L778.482 549.091L776.706 549.683L785.56 576.246ZM820.546 571.248L823.201 599.122L823.766 599.068L824.329 598.991L820.546 571.248ZM893.017 558.753L898.256 586.258L898.882 586.139L899.502 585.992L893.017 558.753ZM928.003 549.59V521.59H924.081L920.311 522.667L928.003 549.59ZM930.502 548.757L921.648 522.194L919.76 522.823L917.98 523.713L930.502 548.757ZM938.832 551.256L911.668 558.047L911.668 558.047L938.832 551.256ZM938.832 763.671L966.831 763.899L938.832 763.671ZM953.826 1147.68L933.186 1166.6L933.597 1167.05L934.027 1167.48L953.826 1147.68ZM997.142 1154.35L985.77 1128.76H985.77L997.142 1154.35ZM863.862 885.289H891.862C891.862 862.43 887.126 840.606 877.573 820.136L852.2 831.977L826.827 843.818C832.824 856.668 835.862 870.385 835.862 885.289H863.862ZM852.2 831.977L877.573 820.136C867.861 799.324 853.76 781.97 835.4 768.553L818.88 791.16L802.36 813.767C812.877 821.453 820.99 831.31 826.827 843.818L852.2 831.977ZM818.88 791.16L835.4 768.553C815.474 753.991 791.968 747.333 766.401 747.333V775.333V803.333C781.928 803.333 793.409 807.226 802.36 813.767L818.88 791.16ZM766.401 775.333V747.333C735.222 747.333 707.022 754.858 683.91 772.005L700.594 794.492L717.278 816.979C728.597 808.581 744.268 803.333 766.401 803.333V775.333ZM700.594 794.492L683.558 772.271C663.148 787.919 647.159 808.117 635.431 832.223L660.61 844.472L685.789 856.721C694.053 839.733 704.72 826.611 717.63 816.713L700.594 794.492ZM660.61 844.472L635.291 832.516C624.675 854.997 617.281 879.15 612.999 904.843L640.618 909.446L668.237 914.049C671.73 893.094 677.664 873.931 685.929 856.428L660.61 844.472ZM640.618 909.446L612.899 905.486C609.401 929.973 607.62 953.516 607.62 976.086H635.62H663.62C663.62 956.451 665.171 935.567 668.337 913.406L640.618 909.446ZM635.62 976.086H607.62C607.62 996.598 609.428 1018.3 612.944 1041.15L640.618 1036.9L668.292 1032.64C665.144 1012.17 663.62 993.337 663.62 976.086H635.62ZM640.618 1036.9L612.944 1041.15C616.626 1065.09 623.112 1087.74 632.493 1109.01L658.111 1097.7L683.729 1086.4C676.45 1069.9 671.274 1052.02 668.292 1032.64L640.618 1036.9ZM658.111 1097.7L632.776 1109.63C643.412 1132.23 658.297 1151.31 677.464 1166.37L694.763 1144.35L712.062 1122.34C700.13 1112.96 690.58 1100.94 683.446 1085.78L658.111 1097.7ZM694.763 1144.35L677.963 1166.75C699.38 1182.81 725.382 1189.84 753.906 1189.84V1161.84V1133.84C734.671 1133.84 721.245 1129.21 711.563 1121.95L694.763 1144.35ZM753.906 1161.84V1189.84C780.063 1189.84 804.151 1181.71 825.442 1166.1L808.884 1143.52L792.326 1120.94C780.297 1129.76 767.733 1133.84 753.906 1133.84V1161.84ZM808.884 1143.52L825.92 1165.74C845.834 1150.47 861.768 1131.51 873.614 1109.14L848.868 1096.04L824.122 1082.94C815.976 1098.32 805.254 1111.02 791.848 1121.3L808.884 1143.52ZM848.868 1096.04L873.614 1109.14C885.392 1086.89 891.862 1063.82 891.862 1040.23H863.862H835.862C835.862 1053.28 832.336 1067.42 824.122 1082.94L848.868 1096.04ZM863.862 1040.23H891.862V885.289H863.862H835.862V1040.23H863.862ZM1018.8 1157.68H990.8C990.8 1150.41 994.561 1146.49 994.836 1146.21L1014.64 1166.01L1034.43 1185.81C1040.26 1179.98 1046.8 1170.5 1046.8 1157.68H1018.8ZM1014.64 1166.01L994.836 1146.21C992.646 1148.4 991.166 1149.65 990.338 1150.27L1007.14 1172.67L1023.94 1195.07C1027.55 1192.36 1031.07 1189.17 1034.43 1185.81L1014.64 1166.01ZM1007.14 1172.67L990.066 1150.48C986.854 1152.95 980.147 1156.45 967.934 1159.87L975.484 1186.84L983.034 1213.8C998.587 1209.44 1012.98 1203.5 1024.21 1194.87L1007.14 1172.67ZM975.484 1186.84L967.644 1159.96C955.785 1163.41 947.19 1164.67 941.331 1164.67V1192.67V1220.67C954.353 1220.67 968.527 1218.03 983.324 1213.72L975.484 1186.84ZM941.331 1192.67V1164.67C932.648 1164.67 927.615 1162.33 924.037 1159.18L905.512 1180.17L886.987 1201.17C902.29 1214.67 921.137 1220.67 941.331 1220.67V1192.67ZM905.512 1180.17L924.037 1159.18C917.515 1153.42 911.87 1146.1 907.232 1136.83L882.188 1149.35L857.144 1161.87C864.724 1177.03 874.628 1190.26 886.987 1201.17L905.512 1180.17ZM882.188 1149.35L907.678 1137.76C902.349 1126.04 897.579 1114.64 893.36 1103.56L867.194 1113.53L841.028 1123.5C845.694 1135.75 850.92 1148.23 856.698 1160.94L882.188 1149.35ZM867.194 1113.53L843.488 1098.63C833.382 1114.71 819.281 1129.71 800.604 1143.47L817.214 1166.01L833.824 1188.55C857.353 1171.21 876.571 1151.23 890.9 1128.43L867.194 1113.53ZM817.214 1166.01L800.996 1143.18C784.212 1155.11 767.314 1160.5 749.741 1160.5V1188.5V1216.5C779.927 1216.5 808.011 1206.9 833.432 1188.84L817.214 1166.01ZM749.741 1188.5V1160.5C734.923 1160.5 719.462 1159.48 703.344 1157.4L699.761 1185.17L696.178 1212.94C714.49 1215.3 732.35 1216.5 749.741 1216.5V1188.5ZM699.761 1185.17L704.364 1157.55C691.287 1155.37 679.156 1150.83 667.788 1143.83L653.113 1167.68L638.438 1191.52C655.947 1202.3 674.915 1209.41 695.158 1212.79L699.761 1185.17ZM653.113 1167.68L668.065 1144C640.82 1126.8 620.166 1103.8 605.768 1074.52L580.642 1086.88L555.516 1099.23C574.438 1137.71 602.098 1168.57 638.161 1191.35L653.113 1167.68ZM580.642 1086.88L606.005 1075.01C591.543 1044.09 584.485 1012.86 584.485 981.084H556.485H528.485C528.485 1021.5 537.532 1060.8 555.279 1098.74L580.642 1086.88ZM556.485 981.084H584.485C584.485 941.161 591.637 906.303 605.327 875.988L579.809 864.464L554.291 852.94C536.882 891.486 528.485 934.375 528.485 981.084H556.485ZM579.809 864.464L605.396 875.836C618.87 845.518 638.471 822.32 664.282 805.425L648.948 781.997L633.614 758.569C598.339 781.658 571.846 813.438 554.222 853.092L579.809 864.464ZM648.948 781.997L664.383 805.358C689.976 788.449 722.626 779.176 763.902 779.176V751.176V723.176C714.103 723.176 670.117 734.451 633.513 758.636L648.948 781.997ZM763.902 751.176V779.176C770.336 779.176 778.526 780.441 788.732 783.689L797.222 757.007L805.712 730.325C791.484 725.798 777.46 723.176 763.902 723.176V751.176ZM797.222 757.007L788.732 783.689C799.356 787.069 809.791 791.431 820.049 796.804L833.041 772.001L846.033 747.198C832.967 740.353 819.523 734.72 805.712 730.325L797.222 757.007ZM833.041 772.001L821.455 797.491C832.222 802.385 839.489 806.959 844.11 810.869L862.196 789.494L880.282 768.119C870.465 759.812 858.295 752.723 844.627 746.511L833.041 772.001ZM862.196 789.494H890.196V627.892H862.196H834.196V789.494H862.196ZM862.196 627.892H890.196C890.196 617.101 888.854 605.442 883.975 595.111C878.548 583.618 868.701 574.002 854.448 570.648L848.035 597.904L841.622 625.16C839.762 624.722 837.712 623.757 835.94 622.228C834.257 620.776 833.528 619.427 833.337 619.023C833.178 618.687 833.434 619.106 833.707 620.714C833.976 622.295 834.196 624.635 834.196 627.892H862.196ZM848.035 597.904L856.387 571.179C843.662 567.202 828.538 565.739 812.216 565.739V593.739V621.739C825.883 621.739 834.637 623.052 839.683 624.629L848.035 597.904ZM812.216 593.739V565.739C806.179 565.739 800.148 566.075 794.13 566.743L797.222 594.572L800.314 622.401C804.292 621.959 808.257 621.739 812.216 621.739V593.739ZM797.222 594.572V566.572C797.212 566.572 797.202 566.572 797.193 566.572C797.183 566.572 797.173 566.572 797.163 566.572C797.154 566.572 797.144 566.572 797.134 566.572C797.124 566.572 797.115 566.572 797.105 566.572C797.095 566.572 797.085 566.572 797.076 566.572C797.066 566.572 797.056 566.572 797.046 566.572C797.037 566.572 797.027 566.572 797.017 566.572C797.007 566.572 796.997 566.572 796.988 566.572C796.978 566.572 796.968 566.572 796.958 566.572C796.949 566.572 796.939 566.572 796.929 566.572C796.919 566.572 796.91 566.572 796.9 566.572C796.89 566.572 796.88 566.572 796.871 566.572C796.861 566.572 796.851 566.572 796.841 566.572C796.832 566.572 796.822 566.572 796.812 566.572C796.802 566.572 796.793 566.572 796.783 566.572C796.773 566.572 796.763 566.572 796.753 566.572C796.744 566.572 796.734 566.572 796.724 566.572C796.714 566.572 796.705 566.572 796.695 566.572C796.685 566.572 796.675 566.572 796.666 566.572C796.656 566.572 796.646 566.572 796.636 566.572C796.627 566.572 796.617 566.572 796.607 566.572C796.597 566.572 796.587 566.572 796.578 566.572C796.568 566.572 796.558 566.572 796.548 566.572C796.539 566.572 796.529 566.572 796.519 566.572C796.509 566.572 796.5 566.572 796.49 566.572C796.48 566.572 796.47 566.572 796.461 566.572C796.451 566.572 796.441 566.572 796.431 566.572C796.422 566.572 796.412 566.572 796.402 566.572C796.392 566.572 796.383 566.572 796.373 566.572C796.363 566.572 796.353 566.572 796.343 566.572C796.334 566.572 796.324 566.572 796.314 566.572C796.304 566.572 796.295 566.572 796.285 566.572C796.275 566.572 796.265 566.572 796.256 566.572C796.246 566.572 796.236 566.572 796.226 566.572C796.217 566.572 796.207 566.572 796.197 566.572C796.187 566.572 796.178 566.572 796.168 566.572C796.158 566.572 796.148 566.572 796.138 566.572C796.129 566.572 796.119 566.572 796.109 566.572C796.099 566.572 796.09 566.572 796.08 566.572C796.07 566.572 796.06 566.572 796.051 566.572C796.041 566.572 796.031 566.572 796.021 566.572C796.012 566.572 796.002 566.572 795.992 566.572C795.982 566.572 795.973 566.572 795.963 566.572C795.953 566.572 795.943 566.572 795.933 566.572C795.924 566.572 795.914 566.572 795.904 566.572C795.894 566.572 795.885 566.572 795.875 566.572C795.865 566.572 795.855 566.572 795.846 566.572C795.836 566.572 795.826 566.572 795.816 566.572C795.807 566.572 795.797 566.572 795.787 566.572C795.777 566.572 795.768 566.572 795.758 566.572C795.748 566.572 795.738 566.572 795.728 566.572C795.719 566.572 795.709 566.572 795.699 566.572C795.689 566.572 795.68 566.572 795.67 566.572C795.66 566.572 795.65 566.572 795.641 566.572C795.631 566.572 795.621 566.572 795.611 566.572C795.602 566.572 795.592 566.572 795.582 566.572C795.572 566.572 795.563 566.572 795.553 566.572C795.543 566.572 795.533 566.572 795.523 566.572C795.514 566.572 795.504 566.572 795.494 566.572C795.484 566.572 795.475 566.572 795.465 566.572C795.455 566.572 795.445 566.572 795.436 566.572C795.426 566.572 795.416 566.572 795.406 566.572C795.397 566.572 795.387 566.572 795.377 566.572C795.367 566.572 795.358 566.572 795.348 566.572C795.338 566.572 795.328 566.572 795.318 566.572C795.309 566.572 795.299 566.572 795.289 566.572C795.279 566.572 795.27 566.572 795.26 566.572C795.25 566.572 795.24 566.572 795.231 566.572C795.221 566.572 795.211 566.572 795.201 566.572C795.192 566.572 795.182 566.572 795.172 566.572C795.162 566.572 795.153 566.572 795.143 566.572C795.133 566.572 795.123 566.572 795.113 566.572C795.104 566.572 795.094 566.572 795.084 566.572C795.074 566.572 795.065 566.572 795.055 566.572C795.045 566.572 795.035 566.572 795.026 566.572C795.016 566.572 795.006 566.572 794.996 566.572C794.987 566.572 794.977 566.572 794.967 566.572C794.957 566.572 794.948 566.572 794.938 566.572C794.928 566.572 794.918 566.572 794.908 566.572C794.899 566.572 794.889 566.572 794.879 566.572C794.869 566.572 794.86 566.572 794.85 566.572C794.84 566.572 794.83 566.572 794.821 566.572C794.811 566.572 794.801 566.572 794.791 566.572C794.782 566.572 794.772 566.572 794.762 566.572C794.752 566.572 794.743 566.572 794.733 566.572C794.723 566.572 794.713 566.572 794.703 566.572C794.694 566.572 794.684 566.572 794.674 566.572C794.664 566.572 794.655 566.572 794.645 566.572C794.635 566.572 794.625 566.572 794.616 566.572C794.606 566.572 794.596 566.572 794.586 566.572C794.577 566.572 794.567 566.572 794.557 566.572C794.547 566.572 794.538 566.572 794.528 566.572C794.518 566.572 794.508 566.572 794.499 566.572C794.489 566.572 794.479 566.572 794.469 566.572C794.459 566.572 794.45 566.572 794.44 566.572C794.43 566.572 794.42 566.572 794.411 566.572C794.401 566.572 794.391 566.572 794.381 566.572C794.372 566.572 794.362 566.572 794.352 566.572C794.342 566.572 794.333 566.572 794.323 566.572C794.313 566.572 794.303 566.572 794.293 566.572C794.284 566.572 794.274 566.572 794.264 566.572C794.254 566.572 794.245 566.572 794.235 566.572C794.225 566.572 794.215 566.572 794.206 566.572C794.196 566.572 794.186 566.572 794.176 566.572C794.167 566.572 794.157 566.572 794.147 566.572C794.137 566.572 794.128 566.572 794.118 566.572C794.108 566.572 794.098 566.572 794.089 566.572C794.079 566.572 794.069 566.572 794.059 566.572C794.049 566.572 794.04 566.572 794.03 566.572C794.02 566.572 794.01 566.572 794.001 566.572C793.991 566.572 793.981 566.572 793.971 566.572C793.962 566.572 793.952 566.572 793.942 566.572C793.932 566.572 793.923 566.572 793.913 566.572C793.903 566.572 793.893 566.572 793.884 566.572C793.874 566.572 793.864 566.572 793.854 566.572C793.844 566.572 793.835 566.572 793.825 566.572C793.815 566.572 793.805 566.572 793.796 566.572C793.786 566.572 793.776 566.572 793.766 566.572C793.757 566.572 793.747 566.572 793.737 566.572C793.727 566.572 793.718 566.572 793.708 566.572C793.698 566.572 793.688 566.572 793.678 566.572C793.669 566.572 793.659 566.572 793.649 566.572C793.639 566.572 793.63 566.572 793.62 566.572C793.61 566.572 793.6 566.572 793.591 566.572C793.581 566.572 793.571 566.572 793.561 566.572C793.552 566.572 793.542 566.572 793.532 566.572C793.522 566.572 793.513 566.572 793.503 566.572C793.493 566.572 793.483 566.572 793.474 566.572C793.464 566.572 793.454 566.572 793.444 566.572C793.434 566.572 793.425 566.572 793.415 566.572C793.405 566.572 793.395 566.572 793.386 566.572C793.376 566.572 793.366 566.572 793.356 566.572C793.347 566.572 793.337 566.572 793.327 566.572C793.317 566.572 793.308 566.572 793.298 566.572C793.288 566.572 793.278 566.572 793.269 566.572C793.259 566.572 793.249 566.572 793.239 566.572C793.229 566.572 793.22 566.572 793.21 566.572C793.2 566.572 793.19 566.572 793.181 566.572C793.171 566.572 793.161 566.572 793.151 566.572C793.142 566.572 793.132 566.572 793.122 566.572C793.112 566.572 793.103 566.572 793.093 566.572C793.083 566.572 793.073 566.572 793.064 566.572C793.054 566.572 793.044 566.572 793.034 566.572C793.024 566.572 793.015 566.572 793.005 566.572C792.995 566.572 792.985 566.572 792.976 566.572C792.966 566.572 792.956 566.572 792.946 566.572C792.937 566.572 792.927 566.572 792.917 566.572C792.907 566.572 792.898 566.572 792.888 566.572C792.878 566.572 792.868 566.572 792.859 566.572C792.849 566.572 792.839 566.572 792.829 566.572C792.819 566.572 792.81 566.572 792.8 566.572C792.79 566.572 792.78 566.572 792.771 566.572C792.761 566.572 792.751 566.572 792.741 566.572C792.732 566.572 792.722 566.572 792.712 566.572C792.702 566.572 792.693 566.572 792.683 566.572C792.673 566.572 792.663 566.572 792.654 566.572C792.644 566.572 792.634 566.572 792.624 566.572C792.614 566.572 792.605 566.572 792.595 566.572C792.585 566.572 792.575 566.572 792.566 566.572C792.556 566.572 792.546 566.572 792.536 566.572C792.527 566.572 792.517 566.572 792.507 566.572C792.497 566.572 792.488 566.572 792.478 566.572C792.468 566.572 792.458 566.572 792.449 566.572C792.439 566.572 792.429 566.572 792.419 566.572C792.409 566.572 792.4 566.572 792.39 566.572C792.38 566.572 792.37 566.572 792.361 566.572C792.351 566.572 792.341 566.572 792.331 566.572C792.322 566.572 792.312 566.572 792.302 566.572C792.292 566.572 792.283 566.572 792.273 566.572C792.263 566.572 792.253 566.572 792.244 566.572C792.234 566.572 792.224 566.572 792.214 566.572C792.204 566.572 792.195 566.572 792.185 566.572C792.175 566.572 792.165 566.572 792.156 566.572C792.146 566.572 792.136 566.572 792.126 566.572C792.117 566.572 792.107 566.572 792.097 566.572C792.087 566.572 792.078 566.572 792.068 566.572C792.058 566.572 792.048 566.572 792.039 566.572C792.029 566.572 792.019 566.572 792.009 566.572C791.999 566.572 791.99 566.572 791.98 566.572C791.97 566.572 791.96 566.572 791.951 566.572C791.941 566.572 791.931 566.572 791.921 566.572C791.912 566.572 791.902 566.572 791.892 566.572C791.882 566.572 791.873 566.572 791.863 566.572C791.853 566.572 791.843 566.572 791.834 566.572C791.824 566.572 791.814 566.572 791.804 566.572C791.794 566.572 791.785 566.572 791.775 566.572C791.765 566.572 791.755 566.572 791.746 566.572C791.736 566.572 791.726 566.572 791.716 566.572C791.707 566.572 791.697 566.572 791.687 566.572C791.677 566.572 791.668 566.572 791.658 566.572C791.648 566.572 791.638 566.572 791.629 566.572C791.619 566.572 791.609 566.572 791.599 566.572C791.59 566.572 791.58 566.572 791.57 566.572C791.56 566.572 791.55 566.572 791.541 566.572C791.531 566.572 791.521 566.572 791.511 566.572C791.502 566.572 791.492 566.572 791.482 566.572C791.472 566.572 791.463 566.572 791.453 566.572C791.443 566.572 791.433 566.572 791.424 566.572C791.414 566.572 791.404 566.572 791.394 566.572C791.385 566.572 791.375 566.572 791.365 566.572C791.355 566.572 791.345 566.572 791.336 566.572C791.326 566.572 791.316 566.572 791.306 566.572C791.297 566.572 791.287 566.572 791.277 566.572C791.267 566.572 791.258 566.572 791.248 566.572C791.238 566.572 791.228 566.572 791.219 566.572C791.209 566.572 791.199 566.572 791.189 566.572C791.18 566.572 791.17 566.572 791.16 566.572C791.15 566.572 791.14 566.572 791.131 566.572C791.121 566.572 791.111 566.572 791.101 566.572C791.092 566.572 791.082 566.572 791.072 566.572C791.062 566.572 791.053 566.572 791.043 566.572C791.033 566.572 791.023 566.572 791.014 566.572C791.004 566.572 790.994 566.572 790.984 566.572C790.975 566.572 790.965 566.572 790.955 566.572C790.945 566.572 790.935 566.572 790.926 566.572C790.916 566.572 790.906 566.572 790.896 566.572C790.887 566.572 790.877 566.572 790.867 566.572C790.857 566.572 790.848 566.572 790.838 566.572C790.828 566.572 790.818 566.572 790.809 566.572C790.799 566.572 790.789 566.572 790.779 566.572C790.77 566.572 790.76 566.572 790.75 566.572C790.74 566.572 790.73 566.572 790.721 566.572C790.711 566.572 790.701 566.572 790.691 566.572C790.682 566.572 790.672 566.572 790.662 566.572C790.652 566.572 790.643 566.572 790.633 566.572C790.623 566.572 790.613 566.572 790.604 566.572C790.594 566.572 790.584 566.572 790.574 566.572C790.565 566.572 790.555 566.572 790.545 566.572C790.535 566.572 790.525 566.572 790.516 566.572C790.506 566.572 790.496 566.572 790.486 566.572C790.477 566.572 790.467 566.572 790.457 566.572C790.447 566.572 790.438 566.572 790.428 566.572C790.418 566.572 790.408 566.572 790.399 566.572C790.389 566.572 790.379 566.572 790.369 566.572C790.36 566.572 790.35 566.572 790.34 566.572C790.33 566.572 790.32 566.572 790.311 566.572C790.301 566.572 790.291 566.572 790.281 566.572C790.272 566.572 790.262 566.572 790.252 566.572C790.242 566.572 790.233 566.572 790.223 566.572C790.213 566.572 790.203 566.572 790.194 566.572C790.184 566.572 790.174 566.572 790.164 566.572C790.155 566.572 790.145 566.572 790.135 566.572C790.125 566.572 790.115 566.572 790.106 566.572C790.096 566.572 790.086 566.572 790.076 566.572C790.067 566.572 790.057 566.572 790.047 566.572C790.037 566.572 790.028 566.572 790.018 566.572C790.008 566.572 789.998 566.572 789.989 566.572C789.979 566.572 789.969 566.572 789.959 566.572C789.95 566.572 789.94 566.572 789.93 566.572C789.92 566.572 789.91 566.572 789.901 566.572C789.891 566.572 789.881 566.572 789.871 566.572C789.862 566.572 789.852 566.572 789.842 566.572C789.832 566.572 789.823 566.572 789.813 566.572C789.803 566.572 789.793 566.572 789.784 566.572C789.774 566.572 789.764 566.572 789.754 566.572C789.745 566.572 789.735 566.572 789.725 566.572C789.715 566.572 789.706 566.572 789.696 566.572C789.686 566.572 789.676 566.572 789.666 566.572C789.657 566.572 789.647 566.572 789.637 566.572C789.627 566.572 789.618 566.572 789.608 566.572C789.598 566.572 789.588 566.572 789.579 566.572C789.569 566.572 789.559 566.572 789.549 566.572C789.54 566.572 789.53 566.572 789.52 566.572C789.51 566.572 789.5 566.572 789.491 566.572C789.481 566.572 789.471 566.572 789.461 566.572C789.452 566.572 789.442 566.572 789.432 566.572C789.422 566.572 789.413 566.572 789.403 566.572C789.393 566.572 789.383 566.572 789.374 566.572C789.364 566.572 789.354 566.572 789.344 566.572C789.335 566.572 789.325 566.572 789.315 566.572C789.305 566.572 789.296 566.572 789.286 566.572C789.276 566.572 789.266 566.572 789.256 566.572C789.247 566.572 789.237 566.572 789.227 566.572C789.217 566.572 789.208 566.572 789.198 566.572C789.188 566.572 789.178 566.572 789.169 566.572C789.159 566.572 789.149 566.572 789.139 566.572C789.13 566.572 789.12 566.572 789.11 566.572C789.1 566.572 789.091 566.572 789.081 566.572C789.071 566.572 789.061 566.572 789.051 566.572C789.042 566.572 789.032 566.572 789.022 566.572C789.012 566.572 789.003 566.572 788.993 566.572C788.983 566.572 788.973 566.572 788.964 566.572C788.954 566.572 788.944 566.572 788.934 566.572C788.925 566.572 788.915 566.572 788.905 566.572C788.895 566.572 788.885 566.572 788.876 566.572C788.866 566.572 788.856 566.572 788.846 566.572C788.837 566.572 788.827 566.572 788.817 566.572C788.807 566.572 788.798 566.572 788.788 566.572C788.778 566.572 788.768 566.572 788.759 566.572C788.749 566.572 788.739 566.572 788.729 566.572C788.72 566.572 788.71 566.572 788.7 566.572C788.69 566.572 788.681 566.572 788.671 566.572C788.661 566.572 788.651 566.572 788.641 566.572C788.632 566.572 788.622 566.572 788.612 566.572C788.602 566.572 788.593 566.572 788.583 566.572C788.573 566.572 788.563 566.572 788.554 566.572C788.544 566.572 788.534 566.572 788.524 566.572C788.515 566.572 788.505 566.572 788.495 566.572C788.485 566.572 788.476 566.572 788.466 566.572C788.456 566.572 788.446 566.572 788.436 566.572C788.427 566.572 788.417 566.572 788.407 566.572C788.397 566.572 788.388 566.572 788.378 566.572C788.368 566.572 788.358 566.572 788.349 566.572C788.339 566.572 788.329 566.572 788.319 566.572C788.31 566.572 788.3 566.572 788.29 566.572C788.28 566.572 788.271 566.572 788.261 566.572C788.251 566.572 788.241 566.572 788.231 566.572C788.222 566.572 788.212 566.572 788.202 566.572C788.192 566.572 788.183 566.572 788.173 566.572C788.163 566.572 788.153 566.572 788.144 566.572C788.134 566.572 788.124 566.572 788.114 566.572C788.105 566.572 788.095 566.572 788.085 566.572C788.075 566.572 788.066 566.572 788.056 566.572C788.046 566.572 788.036 566.572 788.026 566.572C788.017 566.572 788.007 566.572 787.997 566.572C787.987 566.572 787.978 566.572 787.968 566.572C787.958 566.572 787.948 566.572 787.939 566.572C787.929 566.572 787.919 566.572 787.909 566.572C787.9 566.572 787.89 566.572 787.88 566.572C787.87 566.572 787.861 566.572 787.851 566.572C787.841 566.572 787.831 566.572 787.821 566.572C787.812 566.572 787.802 566.572 787.792 566.572C787.782 566.572 787.773 566.572 787.763 566.572C787.753 566.572 787.743 566.572 787.734 566.572C787.724 566.572 787.714 566.572 787.704 566.572C787.695 566.572 787.685 566.572 787.675 566.572C787.665 566.572 787.656 566.572 787.646 566.572C787.636 566.572 787.626 566.572 787.616 566.572C787.607 566.572 787.597 566.572 787.587 566.572C787.577 566.572 787.568 566.572 787.558 566.572C787.548 566.572 787.538 566.572 787.529 566.572C787.519 566.572 787.509 566.572 787.499 566.572C787.49 566.572 787.48 566.572 787.47 566.572C787.46 566.572 787.451 566.572 787.441 566.572C787.431 566.572 787.421 566.572 787.411 566.572C787.402 566.572 787.392 566.572 787.382 566.572C787.372 566.572 787.363 566.572 787.353 566.572C787.343 566.572 787.333 566.572 787.324 566.572C787.314 566.572 787.304 566.572 787.294 566.572C787.285 566.572 787.275 566.572 787.265 566.572C787.255 566.572 787.246 566.572 787.236 566.572C787.226 566.572 787.216 566.572 787.206 566.572C787.197 566.572 787.187 566.572 787.177 566.572C787.167 566.572 787.158 566.572 787.148 566.572C787.138 566.572 787.128 566.572 787.119 566.572C787.109 566.572 787.099 566.572 787.089 566.572C787.08 566.572 787.07 566.572 787.06 566.572C787.05 566.572 787.041 566.572 787.031 566.572C787.021 566.572 787.011 566.572 787.001 566.572C786.992 566.572 786.982 566.572 786.972 566.572C786.962 566.572 786.953 566.572 786.943 566.572C786.933 566.572 786.923 566.572 786.914 566.572C786.904 566.572 786.894 566.572 786.884 566.572C786.875 566.572 786.865 566.572 786.855 566.572C786.845 566.572 786.836 566.572 786.826 566.572C786.816 566.572 786.806 566.572 786.797 566.572C786.787 566.572 786.777 566.572 786.767 566.572C786.757 566.572 786.748 566.572 786.738 566.572C786.728 566.572 786.718 566.572 786.709 566.572C786.699 566.572 786.689 566.572 786.679 566.572C786.67 566.572 786.66 566.572 786.65 566.572C786.64 566.572 786.631 566.572 786.621 566.572C786.611 566.572 786.601 566.572 786.591 566.572C786.582 566.572 786.572 566.572 786.562 566.572C786.552 566.572 786.543 566.572 786.533 566.572C786.523 566.572 786.513 566.572 786.504 566.572C786.494 566.572 786.484 566.572 786.474 566.572C786.465 566.572 786.455 566.572 786.445 566.572C786.435 566.572 786.426 566.572 786.416 566.572C786.406 566.572 786.396 566.572 786.387 566.572C786.377 566.572 786.367 566.572 786.357 566.572C786.347 566.572 786.338 566.572 786.328 566.572C786.318 566.572 786.308 566.572 786.299 566.572C786.289 566.572 786.279 566.572 786.269 566.572C786.26 566.572 786.25 566.572 786.24 566.572C786.23 566.572 786.221 566.572 786.211 566.572C786.201 566.572 786.191 566.572 786.182 566.572C786.172 566.572 786.162 566.572 786.152 566.572C786.142 566.572 786.133 566.572 786.123 566.572C786.113 566.572 786.103 566.572 786.094 566.572C786.084 566.572 786.074 566.572 786.064 566.572C786.055 566.572 786.045 566.572 786.035 566.572C786.025 566.572 786.016 566.572 786.006 566.572C785.996 566.572 785.986 566.572 785.977 566.572C785.967 566.572 785.957 566.572 785.947 566.572C785.937 566.572 785.928 566.572 785.918 566.572C785.908 566.572 785.898 566.572 785.889 566.572C785.879 566.572 785.869 566.572 785.859 566.572C785.85 566.572 785.84 566.572 785.83 566.572C785.82 566.572 785.811 566.572 785.801 566.572C785.791 566.572 785.781 566.572 785.772 566.572C785.762 566.572 785.752 566.572 785.742 566.572C785.732 566.572 785.723 566.572 785.713 566.572C785.703 566.572 785.693 566.572 785.684 566.572C785.674 566.572 785.664 566.572 785.654 566.572C785.645 566.572 785.635 566.572 785.625 566.572C785.615 566.572 785.606 566.572 785.596 566.572C785.586 566.572 785.576 566.572 785.567 566.572C785.557 566.572 785.547 566.572 785.537 566.572C785.527 566.572 785.518 566.572 785.508 566.572C785.498 566.572 785.488 566.572 785.479 566.572C785.469 566.572 785.459 566.572 785.449 566.572C785.44 566.572 785.43 566.572 785.42 566.572C785.41 566.572 785.401 566.572 785.391 566.572C785.381 566.572 785.371 566.572 785.362 566.572C785.352 566.572 785.342 566.572 785.332 566.572C785.322 566.572 785.313 566.572 785.303 566.572C785.293 566.572 785.283 566.572 785.274 566.572C785.264 566.572 785.254 566.572 785.244 566.572C785.235 566.572 785.225 566.572 785.215 566.572C785.205 566.572 785.196 566.572 785.186 566.572C785.176 566.572 785.166 566.572 785.157 566.572C785.147 566.572 785.137 566.572 785.127 566.572C785.117 566.572 785.108 566.572 785.098 566.572C785.088 566.572 785.078 566.572 785.069 566.572C785.059 566.572 785.049 566.572 785.039 566.572C785.03 566.572 785.02 566.572 785.01 566.572C785 566.572 784.991 566.572 784.981 566.572C784.971 566.572 784.961 566.572 784.952 566.572C784.942 566.572 784.932 566.572 784.922 566.572C784.912 566.572 784.903 566.572 784.893 566.572C784.883 566.572 784.873 566.572 784.864 566.572C784.854 566.572 784.844 566.572 784.834 566.572C784.825 566.572 784.815 566.572 784.805 566.572C784.795 566.572 784.786 566.572 784.776 566.572C784.766 566.572 784.756 566.572 784.747 566.572C784.737 566.572 784.727 566.572 784.717 566.572C784.707 566.572 784.698 566.572 784.688 566.572C784.678 566.572 784.668 566.572 784.659 566.572C784.649 566.572 784.639 566.572 784.629 566.572C784.62 566.572 784.61 566.572 784.6 566.572C784.59 566.572 784.581 566.572 784.571 566.572C784.561 566.572 784.551 566.572 784.542 566.572C784.532 566.572 784.522 566.572 784.512 566.572C784.503 566.572 784.493 566.572 784.483 566.572C784.473 566.572 784.463 566.572 784.454 566.572C784.444 566.572 784.434 566.572 784.424 566.572C784.415 566.572 784.405 566.572 784.395 566.572C784.385 566.572 784.376 566.572 784.366 566.572C784.356 566.572 784.346 566.572 784.337 566.572C784.327 566.572 784.317 566.572 784.307 566.572C784.297 566.572 784.288 566.572 784.278 566.572C784.268 566.572 784.258 566.572 784.249 566.572C784.239 566.572 784.229 566.572 784.219 566.572C784.21 566.572 784.2 566.572 784.19 566.572C784.18 566.572 784.171 566.572 784.161 566.572C784.151 566.572 784.141 566.572 784.132 566.572C784.122 566.572 784.112 566.572 784.102 566.572C784.092 566.572 784.083 566.572 784.073 566.572C784.063 566.572 784.053 566.572 784.044 566.572C784.034 566.572 784.024 566.572 784.014 566.572C784.005 566.572 783.995 566.572 783.985 566.572C783.975 566.572 783.966 566.572 783.956 566.572C783.946 566.572 783.936 566.572 783.927 566.572C783.917 566.572 783.907 566.572 783.897 566.572C783.888 566.572 783.878 566.572 783.868 566.572C783.858 566.572 783.848 566.572 783.839 566.572C783.829 566.572 783.819 566.572 783.809 566.572C783.8 566.572 783.79 566.572 783.78 566.572C783.77 566.572 783.761 566.572 783.751 566.572C783.741 566.572 783.731 566.572 783.722 566.572C783.712 566.572 783.702 566.572 783.692 566.572C783.682 566.572 783.673 566.572 783.663 566.572C783.653 566.572 783.643 566.572 783.634 566.572C783.624 566.572 783.614 566.572 783.604 566.572C783.595 566.572 783.585 566.572 783.575 566.572C783.565 566.572 783.556 566.572 783.546 566.572C783.536 566.572 783.526 566.572 783.517 566.572C783.507 566.572 783.497 566.572 783.487 566.572C783.478 566.572 783.468 566.572 783.458 566.572C783.448 566.572 783.438 566.572 783.429 566.572C783.419 566.572 783.409 566.572 783.399 566.572C783.39 566.572 783.38 566.572 783.37 566.572C783.36 566.572 783.351 566.572 783.341 566.572C783.331 566.572 783.321 566.572 783.312 566.572C783.302 566.572 783.292 566.572 783.282 566.572C783.273 566.572 783.263 566.572 783.253 566.572C783.243 566.572 783.233 566.572 783.224 566.572C783.214 566.572 783.204 566.572 783.194 566.572C783.185 566.572 783.175 566.572 783.165 566.572C783.155 566.572 783.146 566.572 783.136 566.572C783.126 566.572 783.116 566.572 783.107 566.572C783.097 566.572 783.087 566.572 783.077 566.572C783.068 566.572 783.058 566.572 783.048 566.572C783.038 566.572 783.028 566.572 783.019 566.572C783.009 566.572 782.999 566.572 782.989 566.572C782.98 566.572 782.97 566.572 782.96 566.572C782.95 566.572 782.941 566.572 782.931 566.572C782.921 566.572 782.911 566.572 782.902 566.572C782.892 566.572 782.882 566.572 782.872 566.572C782.863 566.572 782.853 566.572 782.843 566.572C782.833 566.572 782.823 566.572 782.814 566.572C782.804 566.572 782.794 566.572 782.784 566.572C782.775 566.572 782.765 566.572 782.755 566.572C782.745 566.572 782.736 566.572 782.726 566.572C782.716 566.572 782.706 566.572 782.697 566.572C782.687 566.572 782.677 566.572 782.667 566.572C782.658 566.572 782.648 566.572 782.638 566.572C782.628 566.572 782.618 566.572 782.609 566.572C782.599 566.572 782.589 566.572 782.579 566.572C782.57 566.572 782.56 566.572 782.55 566.572C782.54 566.572 782.531 566.572 782.521 566.572C782.511 566.572 782.501 566.572 782.492 566.572C782.482 566.572 782.472 566.572 782.462 566.572C782.453 566.572 782.443 566.572 782.433 566.572C782.423 566.572 782.413 566.572 782.404 566.572C782.394 566.572 782.384 566.572 782.374 566.572C782.365 566.572 782.355 566.572 782.345 566.572C782.335 566.572 782.326 566.572 782.316 566.572C782.306 566.572 782.296 566.572 782.287 566.572C782.277 566.572 782.267 566.572 782.257 566.572C782.248 566.572 782.238 566.572 782.228 566.572V594.572V622.572C782.238 622.572 782.248 622.572 782.257 622.572C782.267 622.572 782.277 622.572 782.287 622.572C782.296 622.572 782.306 622.572 782.316 622.572C782.326 622.572 782.335 622.572 782.345 622.572C782.355 622.572 782.365 622.572 782.374 622.572C782.384 622.572 782.394 622.572 782.404 622.572C782.413 622.572 782.423 622.572 782.433 622.572C782.443 622.572 782.453 622.572 782.462 622.572C782.472 622.572 782.482 622.572 782.492 622.572C782.501 622.572 782.511 622.572 782.521 622.572C782.531 622.572 782.54 622.572 782.55 622.572C782.56 622.572 782.57 622.572 782.579 622.572C782.589 622.572 782.599 622.572 782.609 622.572C782.618 622.572 782.628 622.572 782.638 622.572C782.648 622.572 782.658 622.572 782.667 622.572C782.677 622.572 782.687 622.572 782.697 622.572C782.706 622.572 782.716 622.572 782.726 622.572C782.736 622.572 782.745 622.572 782.755 622.572C782.765 622.572 782.775 622.572 782.784 622.572C782.794 622.572 782.804 622.572 782.814 622.572C782.823 622.572 782.833 622.572 782.843 622.572C782.853 622.572 782.863 622.572 782.872 622.572C782.882 622.572 782.892 622.572 782.902 622.572C782.911 622.572 782.921 622.572 782.931 622.572C782.941 622.572 782.95 622.572 782.96 622.572C782.97 622.572 782.98 622.572 782.989 622.572C782.999 622.572 783.009 622.572 783.019 622.572C783.028 622.572 783.038 622.572 783.048 622.572C783.058 622.572 783.068 622.572 783.077 622.572C783.087 622.572 783.097 622.572 783.107 622.572C783.116 622.572 783.126 622.572 783.136 622.572C783.146 622.572 783.155 622.572 783.165 622.572C783.175 622.572 783.185 622.572 783.194 622.572C783.204 622.572 783.214 622.572 783.224 622.572C783.233 622.572 783.243 622.572 783.253 622.572C783.263 622.572 783.273 622.572 783.282 622.572C783.292 622.572 783.302 622.572 783.312 622.572C783.321 622.572 783.331 622.572 783.341 622.572C783.351 622.572 783.36 622.572 783.37 622.572C783.38 622.572 783.39 622.572 783.399 622.572C783.409 622.572 783.419 622.572 783.429 622.572C783.438 622.572 783.448 622.572 783.458 622.572C783.468 622.572 783.478 622.572 783.487 622.572C783.497 622.572 783.507 622.572 783.517 622.572C783.526 622.572 783.536 622.572 783.546 622.572C783.556 622.572 783.565 622.572 783.575 622.572C783.585 622.572 783.595 622.572 783.604 622.572C783.614 622.572 783.624 622.572 783.634 622.572C783.643 622.572 783.653 622.572 783.663 622.572C783.673 622.572 783.682 622.572 783.692 622.572C783.702 622.572 783.712 622.572 783.722 622.572C783.731 622.572 783.741 622.572 783.751 622.572C783.761 622.572 783.77 622.572 783.78 622.572C783.79 622.572 783.8 622.572 783.809 622.572C783.819 622.572 783.829 622.572 783.839 622.572C783.848 622.572 783.858 622.572 783.868 622.572C783.878 622.572 783.888 622.572 783.897 622.572C783.907 622.572 783.917 622.572 783.927 622.572C783.936 622.572 783.946 622.572 783.956 622.572C783.966 622.572 783.975 622.572 783.985 622.572C783.995 622.572 784.005 622.572 784.014 622.572C784.024 622.572 784.034 622.572 784.044 622.572C784.053 622.572 784.063 622.572 784.073 622.572C784.083 622.572 784.092 622.572 784.102 622.572C784.112 622.572 784.122 622.572 784.132 622.572C784.141 622.572 784.151 622.572 784.161 622.572C784.171 622.572 784.18 622.572 784.19 622.572C784.2 622.572 784.21 622.572 784.219 622.572C784.229 622.572 784.239 622.572 784.249 622.572C784.258 622.572 784.268 622.572 784.278 622.572C784.288 622.572 784.297 622.572 784.307 622.572C784.317 622.572 784.327 622.572 784.337 622.572C784.346 622.572 784.356 622.572 784.366 622.572C784.376 622.572 784.385 622.572 784.395 622.572C784.405 622.572 784.415 622.572 784.424 622.572C784.434 622.572 784.444 622.572 784.454 622.572C784.463 622.572 784.473 622.572 784.483 622.572C784.493 622.572 784.503 622.572 784.512 622.572C784.522 622.572 784.532 622.572 784.542 622.572C784.551 622.572 784.561 622.572 784.571 622.572C784.581 622.572 784.59 622.572 784.6 622.572C784.61 622.572 784.62 622.572 784.629 622.572C784.639 622.572 784.649 622.572 784.659 622.572C784.668 622.572 784.678 622.572 784.688 622.572C784.698 622.572 784.707 622.572 784.717 622.572C784.727 622.572 784.737 622.572 784.747 622.572C784.756 622.572 784.766 622.572 784.776 622.572C784.786 622.572 784.795 622.572 784.805 622.572C784.815 622.572 784.825 622.572 784.834 622.572C784.844 622.572 784.854 622.572 784.864 622.572C784.873 622.572 784.883 622.572 784.893 622.572C784.903 622.572 784.912 622.572 784.922 622.572C784.932 622.572 784.942 622.572 784.952 622.572C784.961 622.572 784.971 622.572 784.981 622.572C784.991 622.572 785 622.572 785.01 622.572C785.02 622.572 785.03 622.572 785.039 622.572C785.049 622.572 785.059 622.572 785.069 622.572C785.078 622.572 785.088 622.572 785.098 622.572C785.108 622.572 785.117 622.572 785.127 622.572C785.137 622.572 785.147 622.572 785.157 622.572C785.166 622.572 785.176 622.572 785.186 622.572C785.196 622.572 785.205 622.572 785.215 622.572C785.225 622.572 785.235 622.572 785.244 622.572C785.254 622.572 785.264 622.572 785.274 622.572C785.283 622.572 785.293 622.572 785.303 622.572C785.313 622.572 785.322 622.572 785.332 622.572C785.342 622.572 785.352 622.572 785.362 622.572C785.371 622.572 785.381 622.572 785.391 622.572C785.401 622.572 785.41 622.572 785.42 622.572C785.43 622.572 785.44 622.572 785.449 622.572C785.459 622.572 785.469 622.572 785.479 622.572C785.488 622.572 785.498 622.572 785.508 622.572C785.518 622.572 785.527 622.572 785.537 622.572C785.547 622.572 785.557 622.572 785.567 622.572C785.576 622.572 785.586 622.572 785.596 622.572C785.606 622.572 785.615 622.572 785.625 622.572C785.635 622.572 785.645 622.572 785.654 622.572C785.664 622.572 785.674 622.572 785.684 622.572C785.693 622.572 785.703 622.572 785.713 622.572C785.723 622.572 785.732 622.572 785.742 622.572C785.752 622.572 785.762 622.572 785.772 622.572C785.781 622.572 785.791 622.572 785.801 622.572C785.811 622.572 785.82 622.572 785.83 622.572C785.84 622.572 785.85 622.572 785.859 622.572C785.869 622.572 785.879 622.572 785.889 622.572C785.898 622.572 785.908 622.572 785.918 622.572C785.928 622.572 785.937 622.572 785.947 622.572C785.957 622.572 785.967 622.572 785.977 622.572C785.986 622.572 785.996 622.572 786.006 622.572C786.016 622.572 786.025 622.572 786.035 622.572C786.045 622.572 786.055 622.572 786.064 622.572C786.074 622.572 786.084 622.572 786.094 622.572C786.103 622.572 786.113 622.572 786.123 622.572C786.133 622.572 786.142 622.572 786.152 622.572C786.162 622.572 786.172 622.572 786.182 622.572C786.191 622.572 786.201 622.572 786.211 622.572C786.221 622.572 786.23 622.572 786.24 622.572C786.25 622.572 786.26 622.572 786.269 622.572C786.279 622.572 786.289 622.572 786.299 622.572C786.308 622.572 786.318 622.572 786.328 622.572C786.338 622.572 786.347 622.572 786.357 622.572C786.367 622.572 786.377 622.572 786.387 622.572C786.396 622.572 786.406 622.572 786.416 622.572C786.426 622.572 786.435 622.572 786.445 622.572C786.455 622.572 786.465 622.572 786.474 622.572C786.484 622.572 786.494 622.572 786.504 622.572C786.513 622.572 786.523 622.572 786.533 622.572C786.543 622.572 786.552 622.572 786.562 622.572C786.572 622.572 786.582 622.572 786.591 622.572C786.601 622.572 786.611 622.572 786.621 622.572C786.631 622.572 786.64 622.572 786.65 622.572C786.66 622.572 786.67 622.572 786.679 622.572C786.689 622.572 786.699 622.572 786.709 622.572C786.718 622.572 786.728 622.572 786.738 622.572C786.748 622.572 786.757 622.572 786.767 622.572C786.777 622.572 786.787 622.572 786.797 622.572C786.806 622.572 786.816 622.572 786.826 622.572C786.836 622.572 786.845 622.572 786.855 622.572C786.865 622.572 786.875 622.572 786.884 622.572C786.894 622.572 786.904 622.572 786.914 622.572C786.923 622.572 786.933 622.572 786.943 622.572C786.953 622.572 786.962 622.572 786.972 622.572C786.982 622.572 786.992 622.572 787.001 622.572C787.011 622.572 787.021 622.572 787.031 622.572C787.041 622.572 787.05 622.572 787.06 622.572C787.07 622.572 787.08 622.572 787.089 622.572C787.099 622.572 787.109 622.572 787.119 622.572C787.128 622.572 787.138 622.572 787.148 622.572C787.158 622.572 787.167 622.572 787.177 622.572C787.187 622.572 787.197 622.572 787.206 622.572C787.216 622.572 787.226 622.572 787.236 622.572C787.246 622.572 787.255 622.572 787.265 622.572C787.275 622.572 787.285 622.572 787.294 622.572C787.304 622.572 787.314 622.572 787.324 622.572C787.333 622.572 787.343 622.572 787.353 622.572C787.363 622.572 787.372 622.572 787.382 622.572C787.392 622.572 787.402 622.572 787.411 622.572C787.421 622.572 787.431 622.572 787.441 622.572C787.451 622.572 787.46 622.572 787.47 622.572C787.48 622.572 787.49 622.572 787.499 622.572C787.509 622.572 787.519 622.572 787.529 622.572C787.538 622.572 787.548 622.572 787.558 622.572C787.568 622.572 787.577 622.572 787.587 622.572C787.597 622.572 787.607 622.572 787.616 622.572C787.626 622.572 787.636 622.572 787.646 622.572C787.656 622.572 787.665 622.572 787.675 622.572C787.685 622.572 787.695 622.572 787.704 622.572C787.714 622.572 787.724 622.572 787.734 622.572C787.743 622.572 787.753 622.572 787.763 622.572C787.773 622.572 787.782 622.572 787.792 622.572C787.802 622.572 787.812 622.572 787.821 622.572C787.831 622.572 787.841 622.572 787.851 622.572C787.861 622.572 787.87 622.572 787.88 622.572C787.89 622.572 787.9 622.572 787.909 622.572C787.919 622.572 787.929 622.572 787.939 622.572C787.948 622.572 787.958 622.572 787.968 622.572C787.978 622.572 787.987 622.572 787.997 622.572C788.007 622.572 788.017 622.572 788.026 622.572C788.036 622.572 788.046 622.572 788.056 622.572C788.066 622.572 788.075 622.572 788.085 622.572C788.095 622.572 788.105 622.572 788.114 622.572C788.124 622.572 788.134 622.572 788.144 622.572C788.153 622.572 788.163 622.572 788.173 622.572C788.183 622.572 788.192 622.572 788.202 622.572C788.212 622.572 788.222 622.572 788.231 622.572C788.241 622.572 788.251 622.572 788.261 622.572C788.271 622.572 788.28 622.572 788.29 622.572C788.3 622.572 788.31 622.572 788.319 622.572C788.329 622.572 788.339 622.572 788.349 622.572C788.358 622.572 788.368 622.572 788.378 622.572C788.388 622.572 788.397 622.572 788.407 622.572C788.417 622.572 788.427 622.572 788.436 622.572C788.446 622.572 788.456 622.572 788.466 622.572C788.476 622.572 788.485 622.572 788.495 622.572C788.505 622.572 788.515 622.572 788.524 622.572C788.534 622.572 788.544 622.572 788.554 622.572C788.563 622.572 788.573 622.572 788.583 622.572C788.593 622.572 788.602 622.572 788.612 622.572C788.622 622.572 788.632 622.572 788.641 622.572C788.651 622.572 788.661 622.572 788.671 622.572C788.681 622.572 788.69 622.572 788.7 622.572C788.71 622.572 788.72 622.572 788.729 622.572C788.739 622.572 788.749 622.572 788.759 622.572C788.768 622.572 788.778 622.572 788.788 622.572C788.798 622.572 788.807 622.572 788.817 622.572C788.827 622.572 788.837 622.572 788.846 622.572C788.856 622.572 788.866 622.572 788.876 622.572C788.885 622.572 788.895 622.572 788.905 622.572C788.915 622.572 788.925 622.572 788.934 622.572C788.944 622.572 788.954 622.572 788.964 622.572C788.973 622.572 788.983 622.572 788.993 622.572C789.003 622.572 789.012 622.572 789.022 622.572C789.032 622.572 789.042 622.572 789.051 622.572C789.061 622.572 789.071 622.572 789.081 622.572C789.091 622.572 789.1 622.572 789.11 622.572C789.12 622.572 789.13 622.572 789.139 622.572C789.149 622.572 789.159 622.572 789.169 622.572C789.178 622.572 789.188 622.572 789.198 622.572C789.208 622.572 789.217 622.572 789.227 622.572C789.237 622.572 789.247 622.572 789.256 622.572C789.266 622.572 789.276 622.572 789.286 622.572C789.296 622.572 789.305 622.572 789.315 622.572C789.325 622.572 789.335 622.572 789.344 622.572C789.354 622.572 789.364 622.572 789.374 622.572C789.383 622.572 789.393 622.572 789.403 622.572C789.413 622.572 789.422 622.572 789.432 622.572C789.442 622.572 789.452 622.572 789.461 622.572C789.471 622.572 789.481 622.572 789.491 622.572C789.5 622.572 789.51 622.572 789.52 622.572C789.53 622.572 789.54 622.572 789.549 622.572C789.559 622.572 789.569 622.572 789.579 622.572C789.588 622.572 789.598 622.572 789.608 622.572C789.618 622.572 789.627 622.572 789.637 622.572C789.647 622.572 789.657 622.572 789.666 622.572C789.676 622.572 789.686 622.572 789.696 622.572C789.706 622.572 789.715 622.572 789.725 622.572C789.735 622.572 789.745 622.572 789.754 622.572C789.764 622.572 789.774 622.572 789.784 622.572C789.793 622.572 789.803 622.572 789.813 622.572C789.823 622.572 789.832 622.572 789.842 622.572C789.852 622.572 789.862 622.572 789.871 622.572C789.881 622.572 789.891 622.572 789.901 622.572C789.91 622.572 789.92 622.572 789.93 622.572C789.94 622.572 789.95 622.572 789.959 622.572C789.969 622.572 789.979 622.572 789.989 622.572C789.998 622.572 790.008 622.572 790.018 622.572C790.028 622.572 790.037 622.572 790.047 622.572C790.057 622.572 790.067 622.572 790.076 622.572C790.086 622.572 790.096 622.572 790.106 622.572C790.115 622.572 790.125 622.572 790.135 622.572C790.145 622.572 790.155 622.572 790.164 622.572C790.174 622.572 790.184 622.572 790.194 622.572C790.203 622.572 790.213 622.572 790.223 622.572C790.233 622.572 790.242 622.572 790.252 622.572C790.262 622.572 790.272 622.572 790.281 622.572C790.291 622.572 790.301 622.572 790.311 622.572C790.32 622.572 790.33 622.572 790.34 622.572C790.35 622.572 790.36 622.572 790.369 622.572C790.379 622.572 790.389 622.572 790.399 622.572C790.408 622.572 790.418 622.572 790.428 622.572C790.438 622.572 790.447 622.572 790.457 622.572C790.467 622.572 790.477 622.572 790.486 622.572C790.496 622.572 790.506 622.572 790.516 622.572C790.525 622.572 790.535 622.572 790.545 622.572C790.555 622.572 790.565 622.572 790.574 622.572C790.584 622.572 790.594 622.572 790.604 622.572C790.613 622.572 790.623 622.572 790.633 622.572C790.643 622.572 790.652 622.572 790.662 622.572C790.672 622.572 790.682 622.572 790.691 622.572C790.701 622.572 790.711 622.572 790.721 622.572C790.73 622.572 790.74 622.572 790.75 622.572C790.76 622.572 790.77 622.572 790.779 622.572C790.789 622.572 790.799 622.572 790.809 622.572C790.818 622.572 790.828 622.572 790.838 622.572C790.848 622.572 790.857 622.572 790.867 622.572C790.877 622.572 790.887 622.572 790.896 622.572C790.906 622.572 790.916 622.572 790.926 622.572C790.935 622.572 790.945 622.572 790.955 622.572C790.965 622.572 790.975 622.572 790.984 622.572C790.994 622.572 791.004 622.572 791.014 622.572C791.023 622.572 791.033 622.572 791.043 622.572C791.053 622.572 791.062 622.572 791.072 622.572C791.082 622.572 791.092 622.572 791.101 622.572C791.111 622.572 791.121 622.572 791.131 622.572C791.14 622.572 791.15 622.572 791.16 622.572C791.17 622.572 791.18 622.572 791.189 622.572C791.199 622.572 791.209 622.572 791.219 622.572C791.228 622.572 791.238 622.572 791.248 622.572C791.258 622.572 791.267 622.572 791.277 622.572C791.287 622.572 791.297 622.572 791.306 622.572C791.316 622.572 791.326 622.572 791.336 622.572C791.345 622.572 791.355 622.572 791.365 622.572C791.375 622.572 791.385 622.572 791.394 622.572C791.404 622.572 791.414 622.572 791.424 622.572C791.433 622.572 791.443 622.572 791.453 622.572C791.463 622.572 791.472 622.572 791.482 622.572C791.492 622.572 791.502 622.572 791.511 622.572C791.521 622.572 791.531 622.572 791.541 622.572C791.55 622.572 791.56 622.572 791.57 622.572C791.58 622.572 791.59 622.572 791.599 622.572C791.609 622.572 791.619 622.572 791.629 622.572C791.638 622.572 791.648 622.572 791.658 622.572C791.668 622.572 791.677 622.572 791.687 622.572C791.697 622.572 791.707 622.572 791.716 622.572C791.726 622.572 791.736 622.572 791.746 622.572C791.755 622.572 791.765 622.572 791.775 622.572C791.785 622.572 791.794 622.572 791.804 622.572C791.814 622.572 791.824 622.572 791.834 622.572C791.843 622.572 791.853 622.572 791.863 622.572C791.873 622.572 791.882 622.572 791.892 622.572C791.902 622.572 791.912 622.572 791.921 622.572C791.931 622.572 791.941 622.572 791.951 622.572C791.96 622.572 791.97 622.572 791.98 622.572C791.99 622.572 791.999 622.572 792.009 622.572C792.019 622.572 792.029 622.572 792.039 622.572C792.048 622.572 792.058 622.572 792.068 622.572C792.078 622.572 792.087 622.572 792.097 622.572C792.107 622.572 792.117 622.572 792.126 622.572C792.136 622.572 792.146 622.572 792.156 622.572C792.165 622.572 792.175 622.572 792.185 622.572C792.195 622.572 792.204 622.572 792.214 622.572C792.224 622.572 792.234 622.572 792.244 622.572C792.253 622.572 792.263 622.572 792.273 622.572C792.283 622.572 792.292 622.572 792.302 622.572C792.312 622.572 792.322 622.572 792.331 622.572C792.341 622.572 792.351 622.572 792.361 622.572C792.37 622.572 792.38 622.572 792.39 622.572C792.4 622.572 792.409 622.572 792.419 622.572C792.429 622.572 792.439 622.572 792.449 622.572C792.458 622.572 792.468 622.572 792.478 622.572C792.488 622.572 792.497 622.572 792.507 622.572C792.517 622.572 792.527 622.572 792.536 622.572C792.546 622.572 792.556 622.572 792.566 622.572C792.575 622.572 792.585 622.572 792.595 622.572C792.605 622.572 792.614 622.572 792.624 622.572C792.634 622.572 792.644 622.572 792.654 622.572C792.663 622.572 792.673 622.572 792.683 622.572C792.693 622.572 792.702 622.572 792.712 622.572C792.722 622.572 792.732 622.572 792.741 622.572C792.751 622.572 792.761 622.572 792.771 622.572C792.78 622.572 792.79 622.572 792.8 622.572C792.81 622.572 792.819 622.572 792.829 622.572C792.839 622.572 792.849 622.572 792.859 622.572C792.868 622.572 792.878 622.572 792.888 622.572C792.898 622.572 792.907 622.572 792.917 622.572C792.927 622.572 792.937 622.572 792.946 622.572C792.956 622.572 792.966 622.572 792.976 622.572C792.985 622.572 792.995 622.572 793.005 622.572C793.015 622.572 793.024 622.572 793.034 622.572C793.044 622.572 793.054 622.572 793.064 622.572C793.073 622.572 793.083 622.572 793.093 622.572C793.103 622.572 793.112 622.572 793.122 622.572C793.132 622.572 793.142 622.572 793.151 622.572C793.161 622.572 793.171 622.572 793.181 622.572C793.19 622.572 793.2 622.572 793.21 622.572C793.22 622.572 793.229 622.572 793.239 622.572C793.249 622.572 793.259 622.572 793.269 622.572C793.278 622.572 793.288 622.572 793.298 622.572C793.308 622.572 793.317 622.572 793.327 622.572C793.337 622.572 793.347 622.572 793.356 622.572C793.366 622.572 793.376 622.572 793.386 622.572C793.395 622.572 793.405 622.572 793.415 622.572C793.425 622.572 793.434 622.572 793.444 622.572C793.454 622.572 793.464 622.572 793.474 622.572C793.483 622.572 793.493 622.572 793.503 622.572C793.513 622.572 793.522 622.572 793.532 622.572C793.542 622.572 793.552 622.572 793.561 622.572C793.571 622.572 793.581 622.572 793.591 622.572C793.6 622.572 793.61 622.572 793.62 622.572C793.63 622.572 793.639 622.572 793.649 622.572C793.659 622.572 793.669 622.572 793.678 622.572C793.688 622.572 793.698 622.572 793.708 622.572C793.718 622.572 793.727 622.572 793.737 622.572C793.747 622.572 793.757 622.572 793.766 622.572C793.776 622.572 793.786 622.572 793.796 622.572C793.805 622.572 793.815 622.572 793.825 622.572C793.835 622.572 793.844 622.572 793.854 622.572C793.864 622.572 793.874 622.572 793.884 622.572C793.893 622.572 793.903 622.572 793.913 622.572C793.923 622.572 793.932 622.572 793.942 622.572C793.952 622.572 793.962 622.572 793.971 622.572C793.981 622.572 793.991 622.572 794.001 622.572C794.01 622.572 794.02 622.572 794.03 622.572C794.04 622.572 794.049 622.572 794.059 622.572C794.069 622.572 794.079 622.572 794.089 622.572C794.098 622.572 794.108 622.572 794.118 622.572C794.128 622.572 794.137 622.572 794.147 622.572C794.157 622.572 794.167 622.572 794.176 622.572C794.186 622.572 794.196 622.572 794.206 622.572C794.215 622.572 794.225 622.572 794.235 622.572C794.245 622.572 794.254 622.572 794.264 622.572C794.274 622.572 794.284 622.572 794.293 622.572C794.303 622.572 794.313 622.572 794.323 622.572C794.333 622.572 794.342 622.572 794.352 622.572C794.362 622.572 794.372 622.572 794.381 622.572C794.391 622.572 794.401 622.572 794.411 622.572C794.42 622.572 794.43 622.572 794.44 622.572C794.45 622.572 794.459 622.572 794.469 622.572C794.479 622.572 794.489 622.572 794.499 622.572C794.508 622.572 794.518 622.572 794.528 622.572C794.538 622.572 794.547 622.572 794.557 622.572C794.567 622.572 794.577 622.572 794.586 622.572C794.596 622.572 794.606 622.572 794.616 622.572C794.625 622.572 794.635 622.572 794.645 622.572C794.655 622.572 794.664 622.572 794.674 622.572C794.684 622.572 794.694 622.572 794.703 622.572C794.713 622.572 794.723 622.572 794.733 622.572C794.743 622.572 794.752 622.572 794.762 622.572C794.772 622.572 794.782 622.572 794.791 622.572C794.801 622.572 794.811 622.572 794.821 622.572C794.83 622.572 794.84 622.572 794.85 622.572C794.86 622.572 794.869 622.572 794.879 622.572C794.889 622.572 794.899 622.572 794.908 622.572C794.918 622.572 794.928 622.572 794.938 622.572C794.948 622.572 794.957 622.572 794.967 622.572C794.977 622.572 794.987 622.572 794.996 622.572C795.006 622.572 795.016 622.572 795.026 622.572C795.035 622.572 795.045 622.572 795.055 622.572C795.065 622.572 795.074 622.572 795.084 622.572C795.094 622.572 795.104 622.572 795.113 622.572C795.123 622.572 795.133 622.572 795.143 622.572C795.153 622.572 795.162 622.572 795.172 622.572C795.182 622.572 795.192 622.572 795.201 622.572C795.211 622.572 795.221 622.572 795.231 622.572C795.24 622.572 795.25 622.572 795.26 622.572C795.27 622.572 795.279 622.572 795.289 622.572C795.299 622.572 795.309 622.572 795.318 622.572C795.328 622.572 795.338 622.572 795.348 622.572C795.358 622.572 795.367 622.572 795.377 622.572C795.387 622.572 795.397 622.572 795.406 622.572C795.416 622.572 795.426 622.572 795.436 622.572C795.445 622.572 795.455 622.572 795.465 622.572C795.475 622.572 795.484 622.572 795.494 622.572C795.504 622.572 795.514 622.572 795.523 622.572C795.533 622.572 795.543 622.572 795.553 622.572C795.563 622.572 795.572 622.572 795.582 622.572C795.592 622.572 795.602 622.572 795.611 622.572C795.621 622.572 795.631 622.572 795.641 622.572C795.65 622.572 795.66 622.572 795.67 622.572C795.68 622.572 795.689 622.572 795.699 622.572C795.709 622.572 795.719 622.572 795.728 622.572C795.738 622.572 795.748 622.572 795.758 622.572C795.768 622.572 795.777 622.572 795.787 622.572C795.797 622.572 795.807 622.572 795.816 622.572C795.826 622.572 795.836 622.572 795.846 622.572C795.855 622.572 795.865 622.572 795.875 622.572C795.885 622.572 795.894 622.572 795.904 622.572C795.914 622.572 795.924 622.572 795.933 622.572C795.943 622.572 795.953 622.572 795.963 622.572C795.973 622.572 795.982 622.572 795.992 622.572C796.002 622.572 796.012 622.572 796.021 622.572C796.031 622.572 796.041 622.572 796.051 622.572C796.06 622.572 796.07 622.572 796.08 622.572C796.09 622.572 796.099 622.572 796.109 622.572C796.119 622.572 796.129 622.572 796.138 622.572C796.148 622.572 796.158 622.572 796.168 622.572C796.178 622.572 796.187 622.572 796.197 622.572C796.207 622.572 796.217 622.572 796.226 622.572C796.236 622.572 796.246 622.572 796.256 622.572C796.265 622.572 796.275 622.572 796.285 622.572C796.295 622.572 796.304 622.572 796.314 622.572C796.324 622.572 796.334 622.572 796.343 622.572C796.353 622.572 796.363 622.572 796.373 622.572C796.383 622.572 796.392 622.572 796.402 622.572C796.412 622.572 796.422 622.572 796.431 622.572C796.441 622.572 796.451 622.572 796.461 622.572C796.47 622.572 796.48 622.572 796.49 622.572C796.5 622.572 796.509 622.572 796.519 622.572C796.529 622.572 796.539 622.572 796.548 622.572C796.558 622.572 796.568 622.572 796.578 622.572C796.587 622.572 796.597 622.572 796.607 622.572C796.617 622.572 796.627 622.572 796.636 622.572C796.646 622.572 796.656 622.572 796.666 622.572C796.675 622.572 796.685 622.572 796.695 622.572C796.705 622.572 796.714 622.572 796.724 622.572C796.734 622.572 796.744 622.572 796.753 622.572C796.763 622.572 796.773 622.572 796.783 622.572C796.793 622.572 796.802 622.572 796.812 622.572C796.822 622.572 796.832 622.572 796.841 622.572C796.851 622.572 796.861 622.572 796.871 622.572C796.88 622.572 796.89 622.572 796.9 622.572C796.91 622.572 796.919 622.572 796.929 622.572C796.939 622.572 796.949 622.572 796.958 622.572C796.968 622.572 796.978 622.572 796.988 622.572C796.997 622.572 797.007 622.572 797.017 622.572C797.027 622.572 797.037 622.572 797.046 622.572C797.056 622.572 797.066 622.572 797.076 622.572C797.085 622.572 797.095 622.572 797.105 622.572C797.115 622.572 797.124 622.572 797.134 622.572C797.144 622.572 797.154 622.572 797.163 622.572C797.173 622.572 797.183 622.572 797.193 622.572C797.202 622.572 797.212 622.572 797.222 622.572V594.572ZM782.228 594.572V566.572C787.441 566.572 790.969 568.626 792.364 569.673L775.564 592.073L758.764 614.473C764.602 618.852 772.573 622.572 782.228 622.572V594.572ZM775.564 592.073L795.363 572.274C796.762 573.673 798.288 575.68 799.426 578.336C800.578 581.024 801.065 583.755 801.065 586.242H773.065H745.065C745.065 596.375 749.202 605.309 755.765 611.872L775.564 592.073ZM773.065 586.242H801.065C801.065 587.418 800.882 590.911 798.583 595.05C795.997 599.704 791.921 603.025 787.629 604.742L777.23 578.745L766.831 552.748C759.762 555.575 753.604 560.701 749.63 567.854C745.942 574.493 745.065 581.178 745.065 586.242H773.065ZM777.23 578.745L797.029 598.544C795.088 600.485 789.497 605.079 780.562 605.079V577.079V549.079C769.406 549.079 761.593 554.784 757.431 558.946L777.23 578.745ZM780.562 577.079V605.079C785.397 605.079 790.049 604.264 794.414 602.809L785.56 576.246L776.706 549.683C777.739 549.338 779.059 549.079 780.562 549.079V577.079ZM785.56 576.246L790.799 603.751C801.617 601.691 812.417 600.149 823.201 599.122L820.546 571.248L817.891 543.374C805.351 544.568 792.827 546.358 780.321 548.74L785.56 576.246ZM820.546 571.248L824.329 598.991C836.959 597.269 849.585 595.26 862.207 592.965L857.198 565.417L852.189 537.869C840.376 540.016 828.567 541.895 816.763 543.505L820.546 571.248ZM857.198 565.417L862.207 592.965C874.497 590.731 886.514 588.495 898.256 586.258L893.017 558.753L887.778 531.247C876.196 533.454 864.333 535.661 852.189 537.869L857.198 565.417ZM893.017 558.753L899.502 585.992C911.574 583.117 923.638 579.958 935.695 576.513L928.003 549.59L920.311 522.667C909.044 525.886 897.784 528.835 886.532 531.514L893.017 558.753ZM928.003 549.59V577.59C935.693 577.59 941.694 574.466 943.024 573.801L930.502 548.757L917.98 523.713C918.167 523.62 918.954 523.231 920.19 522.819C920.833 522.604 921.784 522.321 922.98 522.082C924.148 521.848 925.876 521.59 928.003 521.59V549.59ZM930.502 548.757L939.356 575.32C939.826 575.163 939.778 575.196 939.375 575.296C939.165 575.349 938.649 575.473 937.916 575.595C937.3 575.698 935.812 575.924 933.834 575.924V547.924V519.924C929.941 519.924 926.744 520.731 925.794 520.968C924.281 521.346 922.844 521.795 921.648 522.194L930.502 548.757ZM933.834 547.924V575.924C931.761 575.924 926.863 575.54 921.634 572.054C915.839 568.191 912.82 562.655 911.668 558.047L938.832 551.256L965.996 544.465C964.289 537.636 960.159 530.434 952.698 525.46C945.804 520.863 938.684 519.924 933.834 519.924V547.924ZM938.832 551.256L911.668 558.047C911.679 558.09 911.677 558.093 911.673 558.061C911.669 558.029 911.665 557.979 911.665 557.92H939.665H967.665C967.665 553.34 967.089 548.839 965.996 544.465L938.832 551.256ZM939.665 557.92H911.665C911.665 626.706 911.388 695.214 910.833 763.443L938.832 763.671L966.831 763.899C967.387 695.516 967.665 626.857 967.665 557.92H939.665ZM938.832 763.671L910.833 763.443C910.277 831.826 909.999 900.485 909.999 969.422H937.999H965.999C965.999 900.636 966.276 832.128 966.831 763.899L938.832 763.671ZM937.999 969.422H909.999V1093.54H937.999H965.999V969.422H937.999ZM937.999 1093.54H909.999C909.999 1105.19 911.37 1116.94 913.998 1128.77L941.331 1122.69L968.664 1116.62C966.849 1108.45 965.999 1100.77 965.999 1093.54H937.999ZM941.331 1122.69L913.998 1128.77C917.141 1142.91 923.336 1155.86 933.186 1166.6L953.826 1147.68L974.466 1128.76C972.098 1126.18 969.964 1122.47 968.664 1116.62L941.331 1122.69ZM953.826 1147.68L934.027 1167.48C947.13 1180.59 964.096 1185.68 981.315 1185.68V1157.68V1129.68C975.21 1129.68 973.85 1128.11 973.625 1127.89L953.826 1147.68ZM981.315 1157.68V1185.68C990.724 1185.68 999.88 1183.77 1008.51 1179.93L997.142 1154.35L985.77 1128.76C984.408 1129.37 983.013 1129.68 981.315 1129.68V1157.68ZM997.142 1154.35L1008.51 1179.93C1009.88 1179.33 1011.27 1179.02 1012.97 1179.02V1151.02V1123.02C1003.56 1123.02 994.404 1124.92 985.77 1128.76L997.142 1154.35ZM1012.97 1151.02V1179.02C1009.55 1179.02 1002.17 1177.87 996.27 1171.12C990.991 1165.09 990.8 1158.92 990.8 1157.68H1018.8H1046.8C1046.8 1151.99 1045.64 1142.5 1038.41 1134.24C1030.57 1125.28 1020.27 1123.02 1012.97 1123.02V1151.02Z" fill="white" mask="url(#path-2-outside-1_1_18)"/>
</g>
<g filter="url(#filter1_d_1_18)">
<mask id="path-4-outside-2_1_18" maskUnits="userSpaceOnUse" x="898" y="1079" width="450" height="502" fill="black">
<rect fill="white" x="898" y="1079" width="450" height="502"/>
<path d="M1321.33 1450.71C1321.33 1454.6 1318.27 1460.15 1312.16 1467.37C1306.05 1474.03 1301.61 1478.75 1298.83 1481.53C1293.84 1486.53 1288.84 1491.52 1283.84 1496.52C1278.84 1501.52 1273.29 1506.24 1267.18 1510.68C1249.96 1522.9 1229.42 1533.45 1205.54 1542.34C1181.66 1550.67 1159.17 1554.83 1138.07 1554.83C1095.86 1554.83 1058.65 1545.67 1026.44 1527.34C994.789 1508.46 969.799 1482.92 951.473 1450.71C933.702 1417.94 924.817 1380.74 924.817 1339.09C924.817 1297.99 933.147 1259.4 949.807 1223.3C966.467 1187.2 992.845 1158.05 1028.94 1135.83C1044.49 1126.39 1061.71 1118.9 1080.59 1113.34C1100.02 1107.79 1118.63 1105.01 1136.4 1105.01C1150.28 1105.01 1163.61 1106.68 1176.38 1110.01C1189.71 1113.34 1202.48 1117.79 1214.7 1123.34C1221.92 1126.67 1228.86 1130 1235.53 1133.34C1242.19 1136.67 1249.41 1138.33 1257.18 1138.33C1263.85 1138.33 1269.12 1136.39 1273.01 1132.5C1277.45 1128.06 1280.79 1125.84 1283.01 1125.84C1284.67 1125.84 1285.51 1126.95 1285.51 1129.17C1286.62 1135.83 1286.89 1142.5 1286.34 1149.16C1286.34 1155.83 1286.62 1162.21 1287.17 1168.32C1287.73 1180.54 1288.28 1192.76 1288.84 1204.97C1289.39 1217.19 1289.95 1229.41 1290.5 1241.62V1244.12C1291.06 1250.23 1290.5 1254.95 1288.84 1258.28C1287.17 1261.62 1282.73 1263.28 1275.51 1263.28C1271.62 1263.28 1268.85 1261.06 1267.18 1256.62C1266.07 1252.18 1264.96 1248.29 1263.85 1244.96C1259.96 1228.85 1254.13 1211.64 1246.36 1193.31C1238.58 1174.98 1228.03 1160.27 1214.7 1149.16C1206.37 1141.39 1195.82 1135 1183.05 1130C1170.83 1125 1159.17 1122.51 1148.06 1122.51C1121.41 1122.51 1098.64 1129.45 1079.76 1143.33C1061.43 1156.66 1046.71 1174.15 1035.61 1195.81C1024.5 1216.91 1016.17 1239.68 1010.62 1264.12C1005.62 1288.55 1003.12 1311.6 1003.12 1333.25C1003.12 1354.91 1005.62 1377.13 1010.62 1399.89C1015.61 1422.11 1023.39 1442.93 1033.94 1462.37C1045.05 1481.81 1059.49 1497.36 1077.26 1509.02C1095.58 1520.68 1117.52 1526.51 1143.06 1526.51C1178.6 1526.51 1208.31 1520.12 1232.19 1507.35C1256.07 1494.02 1279.12 1473.75 1301.33 1446.54C1303.55 1442.66 1306.61 1440.71 1310.5 1440.71C1317.72 1440.71 1321.33 1444.04 1321.33 1450.71Z"/>
</mask>
<path d="M1321.33 1450.71C1321.33 1454.6 1318.27 1460.15 1312.16 1467.37C1306.05 1474.03 1301.61 1478.75 1298.83 1481.53C1293.84 1486.53 1288.84 1491.52 1283.84 1496.52C1278.84 1501.52 1273.29 1506.24 1267.18 1510.68C1249.96 1522.9 1229.42 1533.45 1205.54 1542.34C1181.66 1550.67 1159.17 1554.83 1138.07 1554.83C1095.86 1554.83 1058.65 1545.67 1026.44 1527.34C994.789 1508.46 969.799 1482.92 951.473 1450.71C933.702 1417.94 924.817 1380.74 924.817 1339.09C924.817 1297.99 933.147 1259.4 949.807 1223.3C966.467 1187.2 992.845 1158.05 1028.94 1135.83C1044.49 1126.39 1061.71 1118.9 1080.59 1113.34C1100.02 1107.79 1118.63 1105.01 1136.4 1105.01C1150.28 1105.01 1163.61 1106.68 1176.38 1110.01C1189.71 1113.34 1202.48 1117.79 1214.7 1123.34C1221.92 1126.67 1228.86 1130 1235.53 1133.34C1242.19 1136.67 1249.41 1138.33 1257.18 1138.33C1263.85 1138.33 1269.12 1136.39 1273.01 1132.5C1277.45 1128.06 1280.79 1125.84 1283.01 1125.84C1284.67 1125.84 1285.51 1126.95 1285.51 1129.17C1286.62 1135.83 1286.89 1142.5 1286.34 1149.16C1286.34 1155.83 1286.62 1162.21 1287.17 1168.32C1287.73 1180.54 1288.28 1192.76 1288.84 1204.97C1289.39 1217.19 1289.95 1229.41 1290.5 1241.62V1244.12C1291.06 1250.23 1290.5 1254.95 1288.84 1258.28C1287.17 1261.62 1282.73 1263.28 1275.51 1263.28C1271.62 1263.28 1268.85 1261.06 1267.18 1256.62C1266.07 1252.18 1264.96 1248.29 1263.85 1244.96C1259.96 1228.85 1254.13 1211.64 1246.36 1193.31C1238.58 1174.98 1228.03 1160.27 1214.7 1149.16C1206.37 1141.39 1195.82 1135 1183.05 1130C1170.83 1125 1159.17 1122.51 1148.06 1122.51C1121.41 1122.51 1098.64 1129.45 1079.76 1143.33C1061.43 1156.66 1046.71 1174.15 1035.61 1195.81C1024.5 1216.91 1016.17 1239.68 1010.62 1264.12C1005.62 1288.55 1003.12 1311.6 1003.12 1333.25C1003.12 1354.91 1005.62 1377.13 1010.62 1399.89C1015.61 1422.11 1023.39 1442.93 1033.94 1462.37C1045.05 1481.81 1059.49 1497.36 1077.26 1509.02C1095.58 1520.68 1117.52 1526.51 1143.06 1526.51C1178.6 1526.51 1208.31 1520.12 1232.19 1507.35C1256.07 1494.02 1279.12 1473.75 1301.33 1446.54C1303.55 1442.66 1306.61 1440.71 1310.5 1440.71C1317.72 1440.71 1321.33 1444.04 1321.33 1450.71Z" fill="white"/>
<path d="M1312.16 1467.37L1331.33 1484.94L1331.68 1484.56L1332.01 1484.16L1312.16 1467.37ZM1298.83 1481.53L1317.22 1499.91V1499.91L1298.83 1481.53ZM1283.84 1496.52L1265.46 1478.14L1265.46 1478.14L1283.84 1496.52ZM1267.18 1510.68L1282.23 1531.89L1282.35 1531.8L1282.47 1531.71L1267.18 1510.68ZM1205.54 1542.34L1214.1 1566.89L1214.35 1566.8L1214.61 1566.71L1205.54 1542.34ZM1026.44 1527.34L1013.12 1549.67L1013.35 1549.81L1013.59 1549.94L1026.44 1527.34ZM951.473 1450.71L928.618 1463.1L928.744 1463.34L928.875 1463.57L951.473 1450.71ZM1028.94 1135.83L1015.45 1113.61L1015.38 1113.65L1015.32 1113.69L1028.94 1135.83ZM1080.59 1113.34L1073.45 1088.34L1073.35 1088.37L1073.25 1088.4L1080.59 1113.34ZM1176.38 1110.01L1169.82 1135.17L1169.95 1135.2L1170.08 1135.23L1176.38 1110.01ZM1214.7 1123.34L1225.6 1099.73L1225.53 1099.7L1225.46 1099.67L1214.7 1123.34ZM1235.53 1133.33L1223.9 1156.59H1223.9L1235.53 1133.33ZM1273.01 1132.5L1254.63 1114.12L1254.63 1114.12L1273.01 1132.5ZM1285.51 1129.17H1259.51V1131.32L1259.86 1133.44L1285.51 1129.17ZM1286.34 1149.16L1260.43 1147L1260.34 1148.08V1149.16H1286.34ZM1287.17 1168.32L1313.15 1167.14L1313.12 1166.55L1313.07 1165.97L1287.17 1168.32ZM1288.84 1204.97L1314.81 1203.79V1203.79L1288.84 1204.97ZM1290.5 1241.62H1316.5V1241.03L1316.48 1240.44L1290.5 1241.62ZM1290.5 1244.12H1264.5V1245.3L1264.61 1246.48L1290.5 1244.12ZM1288.84 1258.28L1312.09 1269.91L1312.09 1269.91L1288.84 1258.28ZM1267.18 1256.62L1241.96 1262.92L1242.32 1264.36L1242.84 1265.75L1267.18 1256.62ZM1263.85 1244.96L1238.57 1251.06L1238.83 1252.13L1239.18 1253.18L1263.85 1244.96ZM1246.36 1193.31L1270.29 1183.16V1183.16L1246.36 1193.31ZM1214.7 1149.16L1196.96 1168.17L1197.49 1168.67L1198.06 1169.14L1214.7 1149.16ZM1183.05 1130L1173.2 1154.07L1173.39 1154.14L1173.57 1154.22L1183.05 1130ZM1079.76 1143.33L1095.05 1164.36L1095.1 1164.32L1095.16 1164.28L1079.76 1143.33ZM1035.61 1195.81L1058.61 1207.92L1058.68 1207.8L1058.74 1207.67L1035.61 1195.81ZM1010.62 1264.12L985.263 1258.35L985.2 1258.63L985.143 1258.91L1010.62 1264.12ZM1010.62 1399.9L985.221 1405.47L985.235 1405.54L985.25 1405.6L1010.62 1399.9ZM1033.94 1462.37L1011.09 1474.77L1011.23 1475.02L1011.37 1475.27L1033.94 1462.37ZM1077.26 1509.02L1062.99 1530.76L1063.14 1530.86L1063.3 1530.95L1077.26 1509.02ZM1232.19 1507.35L1244.46 1530.28L1244.66 1530.17L1244.87 1530.06L1232.19 1507.35ZM1301.33 1446.54L1321.47 1462.98L1322.84 1461.31L1323.91 1459.44L1301.33 1446.54ZM1321.33 1450.71H1295.33C1295.33 1448.33 1295.78 1446.66 1296.01 1445.93C1296.26 1445.18 1296.43 1444.94 1296.25 1445.26C1296.09 1445.55 1295.72 1446.16 1295.04 1447.11C1294.37 1448.04 1293.48 1449.2 1292.31 1450.57L1312.16 1467.37L1332.01 1484.16C1335.69 1479.81 1339.16 1475.15 1341.82 1470.32C1344.27 1465.86 1347.33 1458.97 1347.33 1450.71H1321.33ZM1312.16 1467.37L1293 1449.8C1286.9 1456.45 1282.79 1460.8 1280.45 1463.14L1298.83 1481.53L1317.22 1499.91C1320.43 1496.7 1325.21 1491.62 1331.33 1484.94L1312.16 1467.37ZM1298.83 1481.53L1280.45 1463.14C1275.45 1468.14 1270.45 1473.14 1265.46 1478.14L1283.84 1496.52L1302.22 1514.91C1307.22 1509.91 1312.22 1504.91 1317.22 1499.91L1298.83 1481.53ZM1283.84 1496.52L1265.46 1478.14C1261.48 1482.11 1256.97 1485.96 1251.89 1489.66L1267.18 1510.68L1282.47 1531.71C1289.6 1526.52 1296.2 1520.93 1302.22 1514.91L1283.84 1496.52ZM1267.18 1510.68L1252.13 1489.48C1237.1 1500.15 1218.65 1509.72 1196.47 1517.97L1205.54 1542.34L1214.61 1566.71C1240.19 1557.19 1262.83 1545.65 1282.23 1531.89L1267.18 1510.68ZM1205.54 1542.34L1196.97 1517.79C1175.32 1525.34 1155.74 1528.83 1138.07 1528.83V1554.83V1580.83C1162.6 1580.83 1188 1575.99 1214.1 1566.89L1205.54 1542.34ZM1138.07 1554.83V1528.83C1099.73 1528.83 1067.07 1520.55 1039.3 1504.75L1026.44 1527.34L1013.59 1549.94C1050.23 1570.79 1091.99 1580.83 1138.07 1580.83V1554.83ZM1026.44 1527.34L1039.76 1505.01C1011.99 1488.45 990.188 1466.18 974.071 1437.85L951.473 1450.71L928.875 1463.57C949.41 1499.66 977.588 1528.48 1013.12 1549.67L1026.44 1527.34ZM951.473 1450.71L974.328 1438.31C958.854 1409.78 950.817 1376.92 950.817 1339.09H924.817H898.817C898.817 1384.55 908.55 1426.1 928.618 1463.1L951.473 1450.71ZM924.817 1339.09H950.817C950.817 1301.62 958.384 1266.76 973.414 1234.19L949.807 1223.3L926.2 1212.4C907.91 1252.03 898.817 1294.36 898.817 1339.09H924.817ZM949.807 1223.3L973.414 1234.19C987.783 1203.06 1010.53 1177.69 1042.57 1157.98L1028.94 1135.83L1015.32 1113.69C975.16 1138.4 945.151 1171.34 926.2 1212.4L949.807 1223.3ZM1028.94 1135.83L1042.44 1158.06C1055.91 1149.88 1071.03 1143.26 1087.92 1138.29L1080.59 1113.34L1073.25 1088.4C1052.38 1094.54 1033.07 1102.91 1015.45 1113.61L1028.94 1135.83ZM1080.59 1113.34L1087.73 1138.34C1105.16 1133.36 1121.35 1131.01 1136.4 1131.01V1105.01V1079.01C1115.91 1079.01 1094.89 1082.22 1073.45 1088.34L1080.59 1113.34ZM1136.4 1105.01V1131.01C1148.18 1131.01 1159.3 1132.42 1169.82 1135.17L1176.38 1110.01L1182.95 1084.85C1167.92 1080.93 1152.38 1079.01 1136.4 1079.01V1105.01ZM1176.38 1110.01L1170.08 1135.23C1181.91 1138.19 1193.19 1142.12 1203.94 1147.01L1214.7 1123.34L1225.46 1099.67C1211.77 1093.45 1197.51 1088.49 1182.69 1084.79L1176.38 1110.01ZM1214.7 1123.34L1203.81 1146.95C1210.8 1150.17 1217.49 1153.39 1223.9 1156.59L1235.53 1133.33L1247.15 1110.08C1240.23 1106.62 1233.05 1103.17 1225.6 1099.73L1214.7 1123.34ZM1235.53 1133.33L1223.9 1156.59C1234.33 1161.81 1245.55 1164.33 1257.18 1164.33V1138.33V1112.33C1253.26 1112.33 1250.05 1111.53 1247.15 1110.08L1235.53 1133.33ZM1257.18 1138.33V1164.33C1269.18 1164.33 1281.63 1160.65 1291.4 1150.89L1273.01 1132.5L1254.63 1114.12C1254.98 1113.76 1255.4 1113.42 1255.88 1113.12C1256.35 1112.82 1256.79 1112.61 1257.15 1112.48C1257.87 1112.21 1258 1112.33 1257.18 1112.33V1138.33ZM1273.01 1132.5L1291.4 1150.89C1293.01 1149.28 1293.59 1148.92 1293.26 1149.14C1293.07 1149.27 1292.22 1149.82 1290.79 1150.39C1289.41 1150.95 1286.69 1151.84 1283.01 1151.84V1125.84V1099.84C1274.08 1099.84 1267.38 1103.9 1264.42 1105.87C1260.76 1108.31 1257.46 1111.28 1254.63 1114.12L1273.01 1132.5ZM1283.01 1125.84V1151.84C1277.5 1151.84 1269.58 1149.61 1264.08 1142.27C1259.63 1136.34 1259.51 1130.56 1259.51 1129.17H1285.51H1311.51C1311.51 1125.56 1310.96 1118.11 1305.68 1111.07C1299.35 1102.62 1290.18 1099.84 1283.01 1099.84V1125.84ZM1285.51 1129.17L1259.86 1133.44C1260.62 1138.01 1260.8 1142.51 1260.43 1147L1286.34 1149.16L1312.25 1151.32C1312.99 1142.49 1312.61 1133.66 1311.15 1124.9L1285.51 1129.17ZM1286.34 1149.16H1260.34C1260.34 1156.55 1260.65 1163.72 1261.28 1170.67L1287.17 1168.32L1313.07 1165.97C1312.59 1160.7 1312.34 1155.11 1312.34 1149.16H1286.34ZM1287.17 1168.32L1261.2 1169.5C1261.75 1181.72 1262.31 1193.94 1262.86 1206.15L1288.84 1204.97L1314.81 1203.79C1314.26 1191.58 1313.7 1179.36 1313.15 1167.14L1287.17 1168.32ZM1288.84 1204.97L1262.86 1206.15C1263.42 1218.37 1263.98 1230.59 1264.53 1242.81L1290.5 1241.62L1316.48 1240.44C1315.92 1228.23 1315.37 1216.01 1314.81 1203.79L1288.84 1204.97ZM1290.5 1241.62H1264.5V1244.12H1290.5H1316.5V1241.62H1290.5ZM1290.5 1244.12L1264.61 1246.48C1264.69 1247.32 1264.71 1247.97 1264.71 1248.45C1264.71 1248.92 1264.69 1249.16 1264.68 1249.21C1264.68 1249.25 1264.7 1249.04 1264.82 1248.61C1264.93 1248.18 1265.16 1247.5 1265.58 1246.66L1288.84 1258.28L1312.09 1269.91C1316.9 1260.29 1317.14 1249.9 1316.4 1241.77L1290.5 1244.12ZM1288.84 1258.28L1265.58 1246.66C1268.42 1240.98 1272.95 1238.51 1275.13 1237.69C1276.93 1237.01 1277.46 1237.28 1275.51 1237.28V1263.28V1289.28C1283.44 1289.28 1303.05 1287.99 1312.09 1269.91L1288.84 1258.28ZM1275.51 1263.28V1237.28C1278.88 1237.28 1283.09 1238.39 1286.75 1241.31C1290.05 1243.95 1291.25 1246.75 1291.52 1247.49L1267.18 1256.62L1242.84 1265.75C1244.78 1270.93 1248.2 1277.06 1254.27 1281.92C1260.71 1287.07 1268.25 1289.28 1275.51 1289.28V1263.28ZM1267.18 1256.62L1292.4 1250.31C1291.18 1245.41 1289.89 1240.85 1288.51 1236.74L1263.85 1244.96L1239.18 1253.18C1240.03 1255.72 1240.96 1258.95 1241.96 1262.92L1267.18 1256.62ZM1263.85 1244.96L1289.12 1238.86C1284.84 1221.12 1278.51 1202.54 1270.29 1183.16L1246.36 1193.31L1222.42 1203.47C1229.75 1220.73 1235.08 1236.58 1238.57 1251.06L1263.85 1244.96ZM1246.36 1193.31L1270.29 1183.16C1261.14 1161.59 1248.29 1143.31 1231.35 1129.19L1214.7 1149.16L1198.06 1169.14C1207.77 1177.23 1216.02 1188.38 1222.42 1203.47L1246.36 1193.31ZM1214.7 1149.16L1232.44 1130.15C1221.27 1119.73 1207.75 1111.75 1192.52 1105.79L1183.05 1130L1173.57 1154.22C1183.89 1158.25 1191.47 1163.04 1196.96 1168.17L1214.7 1149.16ZM1183.05 1130L1192.89 1105.94C1178.13 1099.9 1163.12 1096.51 1148.06 1096.51V1122.51V1148.51C1155.22 1148.51 1163.53 1150.11 1173.2 1154.07L1183.05 1130ZM1148.06 1122.51V1096.51C1116.66 1096.51 1088.3 1104.78 1064.35 1122.38L1079.76 1143.33L1095.16 1164.28C1108.97 1154.12 1126.15 1148.51 1148.06 1148.51V1122.51ZM1079.76 1143.33L1064.46 1122.3C1042.6 1138.2 1025.3 1158.94 1012.47 1183.95L1035.61 1195.81L1058.74 1207.67C1068.13 1189.37 1080.26 1175.11 1095.05 1164.36L1079.76 1143.33ZM1035.61 1195.81L1012.6 1183.7C1000.38 1206.91 991.292 1231.82 985.263 1258.35L1010.62 1264.12L1035.97 1269.88C1041.05 1247.54 1048.61 1226.92 1058.61 1207.92L1035.61 1195.81ZM1010.62 1264.12L985.143 1258.91C979.846 1284.8 977.119 1309.61 977.119 1333.26H1003.12H1029.12C1029.12 1313.59 1031.39 1292.3 1036.09 1269.33L1010.62 1264.12ZM1003.12 1333.26H977.119C977.119 1356.92 979.851 1381.01 985.221 1405.47L1010.62 1399.9L1036.01 1394.32C1031.38 1373.24 1029.12 1352.9 1029.12 1333.26H1003.12ZM1010.62 1399.9L985.25 1405.6C990.758 1430.08 999.362 1453.17 1011.09 1474.77L1033.94 1462.37L1056.79 1449.97C1047.42 1432.7 1040.47 1414.13 1035.98 1394.19L1010.62 1399.9ZM1033.94 1462.37L1011.37 1475.27C1024.4 1498.07 1041.61 1516.72 1062.99 1530.76L1077.26 1509.02L1091.52 1487.28C1077.36 1477.99 1065.7 1465.54 1056.51 1449.47L1033.94 1462.37ZM1077.26 1509.02L1063.3 1530.95C1086.48 1545.71 1113.46 1552.51 1143.06 1552.51V1526.51V1500.51C1121.58 1500.51 1104.68 1495.65 1091.21 1487.08L1077.26 1509.02ZM1143.06 1526.51V1552.51C1181.59 1552.51 1215.81 1545.6 1244.46 1530.28L1232.19 1507.35L1219.93 1484.43C1200.82 1494.65 1175.62 1500.51 1143.06 1500.51V1526.51ZM1232.19 1507.35L1244.87 1530.06C1272.29 1514.75 1297.75 1492.05 1321.47 1462.98L1301.33 1446.54L1281.19 1430.1C1260.49 1455.46 1239.85 1473.3 1219.52 1484.65L1232.19 1507.35ZM1301.33 1446.54L1323.91 1459.44C1323.41 1460.31 1322.03 1462.33 1319.25 1464.1C1316.29 1465.99 1313.12 1466.71 1310.5 1466.71V1440.71V1414.71C1295.7 1414.71 1284.77 1423.13 1278.76 1433.64L1301.33 1446.54ZM1310.5 1440.71V1466.71C1310.38 1466.71 1309.28 1466.71 1307.59 1466.19C1305.79 1465.63 1303.35 1464.5 1300.98 1462.32C1295.76 1457.49 1295.33 1451.94 1295.33 1450.71H1321.33H1347.33C1347.33 1442.81 1345.09 1432.26 1336.25 1424.11C1327.81 1416.31 1317.62 1414.71 1310.5 1414.71V1440.71Z" fill="white" mask="url(#path-4-outside-2_1_18)"/>
</g>
<g filter="url(#filter2_d_1_18)">
<path d="M1117.12 386.86C1125.42 386.267 1136.1 386.415 1149.16 387.305C1187.13 392.348 1211.01 407.478 1220.8 432.695C1222.58 436.848 1223.77 441.15 1224.36 445.6C1225.25 452.72 1224.95 459.247 1223.47 465.18C1221.69 471.41 1218.87 477.047 1215.02 482.09C1207.9 490.693 1192.32 500.187 1168.29 510.57C1158.5 514.723 1143.67 522.437 1123.79 533.71L1101.54 546.615H1144.71C1175.56 546.022 1191.13 545.725 1191.43 545.725L1194.99 545.28L1196.33 543.055C1198.11 540.088 1199.74 534.748 1201.22 527.035C1202.41 521.695 1203.74 518.728 1205.23 518.135C1206.41 517.838 1209.23 517.69 1213.68 517.69H1221.69L1223.03 519.025C1223.32 519.322 1223.92 520.212 1224.81 521.695L1218.58 553.735C1214.13 574.205 1211.9 584.588 1211.9 584.885C1211.9 585.775 1211.31 586.517 1210.12 587.11L1209.23 588H1128.69C1074.4 588 1046.66 587.11 1045.47 585.33C1043.99 583.55 1043.69 577.765 1044.58 567.975C1044.58 566.492 1044.73 565.602 1045.03 565.305C1045.32 564.415 1057.63 555.96 1081.96 539.94L1128.69 509.68C1143.52 499.89 1153.9 492.028 1159.84 486.095C1169.63 476.305 1174.52 465.625 1174.52 454.055C1174.52 446.342 1172.3 439.37 1167.85 433.14C1157.17 418.9 1138.18 411.78 1110.89 411.78C1104.66 411.78 1100.5 412.077 1098.43 412.67C1093.09 414.153 1089.38 415.637 1087.3 417.12L1084.63 418.455L1087.3 421.125C1094.72 427.652 1096.65 435.81 1093.09 445.6C1092.79 446.49 1092.34 447.528 1091.75 448.715C1090.27 452.275 1087.15 455.242 1082.41 457.615C1075.58 461.175 1068.61 461.175 1061.49 457.615C1055.56 454.648 1051.7 449.753 1049.92 442.93C1048.73 438.777 1049.03 433.437 1050.81 426.91C1052.59 420.68 1054.96 415.933 1057.93 412.67C1068.61 398.43 1088.34 389.827 1117.12 386.86Z" fill="#FEE102"/>
</g>
<path d="M2539.61 1259.71C2511.87 1259.71 2487.11 1252.63 2465.33 1238.46C2443.71 1224.14 2426.7 1203.78 2414.32 1177.38C2402.09 1150.83 2395.98 1118.99 2395.98 1081.85C2395.98 1044.72 2402.17 1012.95 2414.55 986.548C2427.08 960.148 2444.23 939.939 2466 925.919C2487.78 911.899 2512.46 904.889 2540.06 904.889C2561.38 904.889 2578.54 908.469 2591.51 915.628C2604.64 922.638 2614.78 930.841 2621.94 940.237C2629.25 949.634 2634.91 957.911 2638.94 965.07H2642.97V794.818H2709.86V1253H2644.53V1199.53H2638.94C2634.91 1206.84 2629.1 1215.19 2621.49 1224.59C2614.03 1233.98 2603.74 1242.19 2590.62 1249.2C2577.49 1256.21 2560.49 1259.71 2539.61 1259.71ZM2554.37 1202.66C2573.61 1202.66 2589.87 1197.59 2603.14 1187.45C2616.57 1177.16 2626.71 1162.91 2633.57 1144.72C2640.58 1126.52 2644.09 1105.34 2644.09 1081.18C2644.09 1057.32 2640.66 1036.44 2633.79 1018.54C2626.93 1000.64 2616.87 986.697 2603.59 976.704C2590.32 966.711 2573.91 961.714 2554.37 961.714C2534.24 961.714 2517.46 966.935 2504.04 977.375C2490.61 987.815 2480.47 1002.06 2473.61 1020.11C2466.9 1038.15 2463.54 1058.51 2463.54 1081.18C2463.54 1104.15 2466.97 1124.81 2473.83 1143.15C2480.69 1161.5 2490.84 1176.04 2504.26 1186.78C2517.83 1197.37 2534.54 1202.66 2554.37 1202.66ZM2804.44 1253V1202.89L2959.48 1042.25C2976.03 1024.8 2989.68 1009.52 3000.42 996.391C3011.31 983.117 3019.43 970.514 3024.8 958.582C3030.17 946.651 3032.86 933.973 3032.86 920.55C3032.86 905.337 3029.28 892.212 3022.12 881.175C3014.96 869.989 3005.19 861.413 2992.81 855.447C2980.43 849.332 2966.49 846.274 2950.98 846.274C2934.57 846.274 2920.25 849.63 2908.02 856.342C2895.79 863.053 2886.4 872.524 2879.83 884.754C2873.27 896.984 2869.99 911.303 2869.99 927.709H2803.99C2803.99 899.818 2810.4 875.433 2823.23 854.552C2836.06 833.671 2853.66 817.489 2876.03 806.004C2898.4 794.371 2923.83 788.554 2952.32 788.554C2981.1 788.554 3006.46 794.296 3028.38 805.781C3050.46 817.116 3067.68 832.627 3080.06 852.315C3092.44 871.853 3098.63 893.927 3098.63 918.536C3098.63 935.539 3095.43 952.169 3089.01 968.426C3082.75 984.683 3071.79 1002.8 3056.13 1022.79C3040.46 1042.63 3018.69 1066.71 2990.8 1095.05L2899.74 1190.36V1193.71H3106.02V1253H2804.44ZM3336.45 1259.94C3303.19 1259.94 3274.55 1252.4 3250.54 1237.34C3226.68 1222.13 3208.33 1201.17 3195.5 1174.47C3182.68 1147.78 3176.26 1117.2 3176.26 1082.75C3176.26 1047.85 3182.83 1017.05 3195.95 990.351C3209.08 963.504 3227.57 942.549 3251.43 927.485C3275.3 912.421 3303.41 904.889 3335.78 904.889C3361.88 904.889 3385.15 909.737 3405.58 919.431C3426.01 928.977 3442.49 942.4 3455.02 959.701C3467.7 977.002 3475.23 997.212 3477.62 1020.33H3412.51C3408.93 1004.22 3400.73 990.351 3387.9 978.717C3375.23 967.084 3358.22 961.267 3336.9 961.267C3318.25 961.267 3301.92 966.189 3287.9 976.033C3274.03 985.727 3263.22 999.598 3255.46 1017.64C3247.71 1035.54 3243.83 1056.72 3243.83 1081.18C3243.83 1106.24 3247.63 1127.87 3255.24 1146.06C3262.84 1164.26 3273.58 1178.35 3287.45 1188.34C3301.47 1198.34 3317.95 1203.33 3336.9 1203.33C3349.57 1203.33 3361.06 1201.02 3371.35 1196.4C3381.79 1191.63 3390.51 1184.84 3397.52 1176.04C3404.68 1167.24 3409.68 1156.65 3412.51 1144.27H3477.62C3475.23 1166.49 3468 1186.33 3455.92 1203.78C3443.83 1221.23 3427.65 1234.95 3407.37 1244.95C3387.23 1254.94 3363.59 1259.94 3336.45 1259.94ZM3693.9 1259.94C3661.68 1259.94 3633.57 1252.55 3609.56 1237.79C3585.54 1223.02 3566.9 1202.36 3553.63 1175.82C3540.35 1149.27 3533.71 1118.25 3533.71 1082.75C3533.71 1047.1 3540.35 1015.93 3553.63 989.232C3566.9 962.535 3585.54 941.803 3609.56 927.038C3633.57 912.272 3661.68 904.889 3693.9 904.889C3726.12 904.889 3754.23 912.272 3778.24 927.038C3802.26 941.803 3820.9 962.535 3834.17 989.232C3847.45 1015.93 3854.08 1047.1 3854.08 1082.75C3854.08 1118.25 3847.45 1149.27 3834.17 1175.82C3820.9 1202.36 3802.26 1223.02 3778.24 1237.79C3754.23 1252.55 3726.12 1259.94 3693.9 1259.94ZM3694.12 1203.78C3715 1203.78 3732.31 1198.26 3746.03 1187.23C3759.75 1176.19 3769.89 1161.5 3776.45 1143.15C3783.16 1124.81 3786.52 1104.6 3786.52 1082.52C3786.52 1060.6 3783.16 1040.46 3776.45 1022.12C3769.89 1003.62 3759.75 988.785 3746.03 977.599C3732.31 966.413 3715 960.82 3694.12 960.82C3673.09 960.82 3655.64 966.413 3641.77 977.599C3628.05 988.785 3617.83 1003.62 3611.12 1022.12C3604.56 1040.46 3601.28 1060.6 3601.28 1082.52C3601.28 1104.6 3604.56 1124.81 3611.12 1143.15C3617.83 1161.5 3628.05 1176.19 3641.77 1187.23C3655.64 1198.26 3673.09 1203.78 3694.12 1203.78ZM3928.75 1253V909.364H3993.41V963.952H3996.99C4003.25 945.457 4014.29 930.915 4030.1 920.326C4046.06 909.587 4064.1 904.218 4084.24 904.218C4088.41 904.218 4093.34 904.367 4099 904.665C4104.82 904.964 4109.37 905.337 4112.65 905.784V969.768C4109.97 969.023 4105.19 968.202 4098.33 967.308C4091.47 966.263 4084.61 965.741 4077.75 965.741C4061.94 965.741 4047.85 969.097 4035.47 975.809C4023.24 982.371 4013.54 991.544 4006.38 1003.33C3999.22 1014.96 3995.64 1028.23 3995.64 1043.15V1253H3928.75ZM4267.47 1260.61C4245.69 1260.61 4226 1256.58 4208.4 1248.53C4190.8 1240.32 4176.86 1228.47 4166.57 1212.95C4156.43 1197.44 4151.35 1178.43 4151.35 1155.9C4151.35 1136.52 4155.08 1120.56 4162.54 1108.03C4170 1095.5 4180.07 1085.58 4192.74 1078.27C4205.42 1070.97 4219.59 1065.45 4235.25 1061.72C4250.91 1057.99 4266.87 1055.16 4283.13 1053.22C4303.71 1050.83 4320.41 1048.89 4333.24 1047.4C4346.07 1045.76 4355.39 1043.15 4361.21 1039.57C4367.02 1035.99 4369.93 1030.17 4369.93 1022.12V1020.55C4369.93 1001.01 4364.41 985.876 4353.37 975.138C4342.49 964.399 4326.23 959.03 4304.6 959.03C4282.08 959.03 4264.33 964.026 4251.36 974.019C4238.53 983.863 4229.66 994.825 4224.73 1006.91L4161.87 992.588C4169.33 971.707 4180.21 954.854 4194.53 942.027C4209 929.051 4225.63 919.655 4244.42 913.838C4263.22 907.872 4282.98 904.889 4303.71 904.889C4317.43 904.889 4331.97 906.53 4347.33 909.811C4362.85 912.943 4377.31 918.76 4390.74 927.261C4404.31 935.763 4415.42 947.918 4424.07 963.728C4432.72 979.388 4437.05 999.747 4437.05 1024.8V1253H4371.72V1206.02H4369.04C4364.71 1214.67 4358.22 1223.17 4349.57 1231.52C4340.92 1239.87 4329.81 1246.81 4316.24 1252.33C4302.66 1257.85 4286.41 1260.61 4267.47 1260.61ZM4282.01 1206.91C4300.5 1206.91 4316.31 1203.26 4329.44 1195.95C4342.71 1188.64 4352.78 1179.1 4359.64 1167.31C4366.65 1155.38 4370.15 1142.63 4370.15 1129.06V1084.76C4367.77 1087.15 4363.14 1089.38 4356.28 1091.47C4349.57 1093.41 4341.89 1095.13 4333.24 1096.62C4324.59 1097.96 4316.16 1099.23 4307.96 1100.42C4299.76 1101.47 4292.9 1102.36 4287.38 1103.11C4274.4 1104.75 4262.54 1107.51 4251.81 1111.38C4241.22 1115.26 4232.71 1120.86 4226.3 1128.16C4220.04 1135.32 4216.9 1144.87 4216.9 1156.8C4216.9 1173.36 4223.02 1185.88 4235.25 1194.38C4247.48 1202.74 4263.07 1206.91 4282.01 1206.91Z" fill="white"/>
<defs>
<filter id="filter0_d_1_18" x="524.485" y="519.924" width="526.315" height="768.742" filterUnits="userSpaceOnUse" color-interpolation-filters="sRGB">
<feFlood flood-opacity="0" result="BackgroundImageFix"/>
<feColorMatrix in="SourceAlpha" type="matrix" values="0 0 0 0 0 0 0 0 0 0 0 0 0 0 0 0 0 0 127 0" result="hardAlpha"/>
<feOffset dy="64"/>
<feGaussianBlur stdDeviation="2"/>
<feComposite in2="hardAlpha" operator="out"/>
<feColorMatrix type="matrix" values="0 0 0 0 0 0 0 0 0 0 0 0 0 0 0 0 0 0 0.25 0"/>
<feBlend mode="normal" in2="BackgroundImageFix" result="effect1_dropShadow_1_18"/>
<feBlend mode="normal" in="SourceGraphic" in2="effect1_dropShadow_1_18" result="shape"/>
</filter>
<filter id="filter1_d_1_18" x="894.817" y="1079.01" width="456.508" height="564.82" filterUnits="userSpaceOnUse" color-interpolation-filters="sRGB">
<feFlood flood-opacity="0" result="BackgroundImageFix"/>
<feColorMatrix in="SourceAlpha" type="matrix" values="0 0 0 0 0 0 0 0 0 0 0 0 0 0 0 0 0 0 127 0" result="hardAlpha"/>
<feOffset dy="59"/>
<feGaussianBlur stdDeviation="2"/>
<feComposite in2="hardAlpha" operator="out"/>
<feColorMatrix type="matrix" values="0 0 0 0 0 0 0 0 0 0 0 0 0 0 0 0 0 0 0.25 0"/>
<feBlend mode="normal" in2="BackgroundImageFix" result="effect1_dropShadow_1_18"/>
<feBlend mode="normal" in="SourceGraphic" in2="effect1_dropShadow_1_18" result="shape"/>
</filter>
<filter id="filter2_d_1_18" x="1039.25" y="385.97" width="190.45" height="220.03" filterUnits="userSpaceOnUse" color-interpolation-filters="sRGB">
<feFlood flood-opacity="0" result="BackgroundImageFix"/>
<feColorMatrix in="SourceAlpha" type="matrix" values="0 0 0 0 0 0 0 0 0 0 0 0 0 0 0 0 0 0 127 0" result="hardAlpha"/>
<feOffset dy="14"/>
<feGaussianBlur stdDeviation="2"/>
<feComposite in2="hardAlpha" operator="out"/>
<feColorMatrix type="matrix" values="0 0 0 0 0 0 0 0 0 0 0 0 0 0 0 0 0 0 0.25 0"/>
<feBlend mode="normal" in2="BackgroundImageFix" result="effect1_dropShadow_1_18"/>
<feBlend mode="normal" in="SourceGraphic" in2="effect1_dropShadow_1_18" result="shape"/>
</filter>
</defs>
</svg>
